/* XPM */
static char *result[] = {
/* columns rows colors chars-per-pixel */
"64 64 8 1 ",
"  c #140C1C",
". c #442434",
"X c #4E4A4E",
"o c #757161",
"O c #854C30",
"+ c #8595A1",
"@ c #D2AA99",
"# c None",
/* pixels */
"################################################################",
"################################################################",
"################################################################",
"################################################################",
"################################################################",
"################################################################",
"################################################################",
"################################################################",
"################################################################",
"################################################################",
"################################################################",
"################################################################",
"################################################################",
"################################################################",
"################################################################",
"################################################################",
"################################################################",
"################################################################",
"################################################################",
"####################                        ####################",
"#################### +oooooX X    X +oooooo ####################",
"#################### ooXXXXX OO  OO XXXXXoo ####################",
"#################### oo..... .XOOX. .....oo ####################",
"#################### XX      ......      XX ####################",
"#################### XX                  XX ####################",
"#################### ..                  .. ####################",
"#################### ..                  .. ####################",
"####################                        ####################",
"#################### ...................... ####################",
"#################### ..                  .. ####################",
"#################### ..                  .. ####################",
"#################### XX                  XX ####################",
"#################### XX                  XX ####################",
"#################### oo..................oo ####################",
"#################### ooXXXXXXXXXXXXXXXXXXoo ####################",
"#################### ..                  .. ####################",
"#################### +o ................ +o ####################",
"#################### oX .X.X.X.X.X.X.X.X oX ####################",
"#################### oX .O.O.O.O.O.O.O.O oX ####################",
"#################### oX .O.O.O.O.O.O.O.O oX ####################",
"#################### oX                  +X ####################",
"#################### oXo+++++++++++++++++@X ####################",
"#################### oXXXXXXXXXXXXXXXXXXXXX ####################",
"#################### XooooooooooooooooooooX ####################",
"####################                        ####################",
"################################################################",
"################################################################",
"################################################################",
"################################################################",
"################################################################",
"################################################################",
"################################################################",
"################################################################",
"################################################################",
"################################################################",
"################################################################",
"################################################################",
"################################################################",
"################################################################",
"################################################################",
"################################################################",
"################################################################",
"################################################################",
"################################################################"
};
