/* XPM */
static char *result[] = {
/* columns rows colors chars-per-pixel */
"64 64 151 2 ",
"   c black",
".  c #010101",
"X  c #020202",
"o  c gray1",
"O  c #040404",
"+  c gray2",
"@  c #060606",
"#  c #070707",
"$  c gray3",
"%  c #090909",
"&  c gray4",
"*  c #0B0B0B",
"=  c #0C0C0C",
"-  c gray5",
";  c #0E0E0E",
":  c gray6",
">  c #101010",
",  c #111111",
"<  c gray7",
"1  c #131313",
"2  c gray8",
"3  c #151515",
"4  c #161616",
"5  c gray9",
"6  c #181818",
"7  c #191919",
"8  c gray10",
"9  c #1B1B1B",
"0  c gray11",
"q  c #1D1D1D",
"w  c #1E1E1E",
"e  c gray12",
"r  c #202020",
"t  c gray13",
"y  c #222222",
"u  c #232323",
"i  c gray14",
"p  c #252525",
"a  c gray15",
"s  c #272727",
"d  c #282828",
"f  c gray16",
"g  c #2A2A2A",
"h  c gray17",
"j  c #2C2C2C",
"k  c #2D2D2D",
"l  c gray18",
"z  c #2F2F2F",
"x  c gray19",
"c  c #313131",
"v  c #323232",
"b  c gray20",
"n  c #343434",
"m  c #353535",
"M  c gray21",
"N  c #373737",
"B  c gray22",
"V  c #393939",
"C  c #3A3A3A",
"Z  c gray23",
"A  c #3C3C3C",
"S  c gray24",
"D  c #3E3E3E",
"F  c #3F3F3F",
"G  c gray25",
"H  c #414141",
"J  c gray26",
"K  c #434343",
"L  c #444444",
"P  c gray27",
"I  c #464646",
"U  c gray28",
"Y  c #484848",
"T  c #494949",
"R  c gray29",
"E  c #4B4B4B",
"W  c #4C4C4C",
"Q  c gray30",
"!  c #4E4E4E",
"~  c gray31",
"^  c #505050",
"/  c #515151",
"(  c gray32",
")  c #535353",
"_  c gray33",
"`  c #555555",
"'  c #565656",
"]  c gray34",
"[  c #585858",
"{  c gray35",
"}  c #5A5A5A",
"|  c #5B5B5B",
" . c gray36",
".. c #5D5D5D",
"X. c #5F5F5F",
"o. c #606060",
"O. c gray38",
"+. c #646464",
"@. c #767676",
"#. c #777777",
"$. c gray48",
"%. c #7B7B7B",
"&. c #7C7C7C",
"*. c gray49",
"=. c #7E7E7E",
"-. c gray50",
";. c gray51",
":. c #838383",
">. c #848484",
",. c gray52",
"<. c #868686",
"1. c gray53",
"2. c #888888",
"3. c gray54",
"4. c #8B8B8B",
"5. c gray55",
"6. c #8D8D8D",
"7. c #8E8E8E",
"8. c gray56",
"9. c #909090",
"0. c gray57",
"q. c #929292",
"w. c #939393",
"e. c gray58",
"r. c #959595",
"t. c gray59",
"y. c gray60",
"u. c #9A9A9A",
"i. c #9B9B9B",
"p. c gray61",
"a. c #A2A2A2",
"s. c gray64",
"d. c #A4A4A4",
"f. c gray65",
"g. c #A7A7A7",
"h. c #AAAAAA",
"j. c gray67",
"k. c gray68",
"l. c #AEAEAE",
"z. c gray70",
"x. c #B4B4B4",
"c. c gray71",
"v. c #B7B7B7",
"b. c gray72",
"n. c #B9B9B9",
"m. c gray73",
"M. c #BBBBBB",
"N. c #BCBCBC",
"B. c gray74",
"V. c gray",
"C. c None",
/* pixels */
"C.C.C.C.C.C.C.C.C.C.C.C.C.C.C.C.C.C.C.C.C.C.C.C.C.C.C.C.C.C.C.C.C.C.C.C.C.C.C.C.C.C.C.C.C.C.C.C.C.C.C.C.C.C.C.C.C.C.C.C.C.C.C.C.",
"C.C.C.C.C.C.C.C.C.C.C.C.C.C.C.C.C.C.C.C.C.C.C.C.C.C.C.C.C.C.C.C.C.C.C.C.C.C.C.C.C.C.C.C.C.C.C.C.C.C.C.C.C.C.C.C.C.C.C.C.C.C.C.C.",
"C.C.C.C.C.C.C.C.C.C.C.C.C.C.C.C.C.C.C.C.C.C.C.C.C.C.C.C.C.C.C.C.C.C.C.C.C.C.C.C.C.C.C.C.C.C.C.C.C.C.C.C.C.C.C.C.C.C.C.C.C.C.C.C.",
"C.C.C.C.C.C.C.C.C.C.C.C.C.C.C.C.C.C.C.C.C.C.C.C.C.C.C.C.C.C.C.C.C.C.C.C.C.C.C.C.C.C.C.C.C.C.C.C.C.C.C.C.C.C.C.C.C.C.C.C.C.C.C.C.",
"C.C.C.C.C.C.C.C.C.C.C.C.C.C.C.C.C.C.C.C.C.C.C.C.C.C.C.C.C.C.C.C.C.C.C.C.C.C.C.C.C.C.C.C.C.C.C.C.C.C.C.C.C.C.C.C.C.C.C.C.C.C.C.C.",
"C.C.C.C.C.C.C.C.C.C.C.C.C.C.C.C.C.C.C.C.C.C.C.C.C.C.C.C.C.C.C.C.C.C.C.C.C.C.C.C.C.C.C.C.C.C.C.C.C.C.C.C.C.C.C.C.C.C.C.C.C.C.C.C.",
"C.C.C.C.C.C.C.C.C.C.C.C.C.C.C.C.C.C.C.C.C.C.C.C.C.C.C.C.C.C.C.C.C.C.C.C.C.C.C.C.C.C.C.C.C.C.C.C.C.C.C.C.C.C.C.C.C.C.C.C.C.C.C.C.",
"C.C.C.C.C.C.C.C.C.C.C.C.C.C.C.C.C.C.C.C.C.C.C.C.C.C.C.C.C.C.C.C.C.C.C.C.C.C.C.C.C.C.C.C.C.C.C.C.C.C.C.C.C.C.C.C.C.C.C.C.C.C.C.C.",
"C.C.C.C.C.C.C.C.C.C.C.C.C.C.C.C.C.C.C.C.C.C.C.C.C.C.C.C.C.C.C.C.C.C.C.C.C.C.C.C.C.C.C.C.C.C.C.C.C.C.C.C.C.C.C.C.C.C.C.C.C.C.C.C.",
"C.C.C.C.C.C.C.C.C.C.C.C.C.C.C.C.C.C.C.C.C.C.C.C.C.C.C.C.C.C.C.C.C.C.C.C.C.C.C.C.C.C.C.C.C.C.C.C.C.C.C.C.C.C.C.C.C.C.C.C.C.C.C.C.",
"C.C.C.C.C.C.C.C.C.C.C.C.C.C.C.C.C.C.C.C.C.C.C.C.C.C.C.C.C.C.C.C.C.C.C.C.C.C.C.C.C.C.C.C.C.C.C.C.C.C.C.C.C.C.C.C.C.C.C.C.C.C.C.C.",
"C.C.C.C.C.C.C.C.C.C.C.C.C.C.C.C.C.C.C.C.C.C.C.C.C.C.C.C.C.C.C.C.C.C.C.C.C.C.C.C.C.C.C.C.C.C.C.C.C.C.C.C.C.C.C.C.C.C.C.C.C.C.C.C.",
"C.C.C.C.C.C.C.C.C.C.C.C.C.C.C.C.C.C.C.C.C.C.C.C.C.C.C.C.C.C.C.C.C.C.C.C.C.C.C.C.C.C.C.C.C.C.C.C.C.C.C.C.C.C.C.C.C.C.C.C.C.C.C.C.",
"C.C.C.C.C.C.C.C.C.C.C.C.C.C.C.C.C.C.C.C.C.C.C.C.C.C.C.C.C.C.C.C.C.C.C.C.C.C.C.C.C.C.C.C.C.C.C.C.C.C.C.C.C.C.C.C.C.C.C.C.C.C.C.C.",
"C.C.C.C.C.C.C.C.C.C.C.C.C.C.C.C.C.C.C.C.C.C.C.C.C.C.C.C.C.C.C.C.C.C.C.C.C.C.C.C.C.C.C.C.C.C.C.C.C.C.C.C.C.C.C.C.C.C.C.C.C.C.C.C.",
"C.C.C.C.C.C.C.C.C.C.C.C.C.C.C.C.C.C.C.C.C.C.C.C.C.C.C.C.C.C.C.C.C.C.C.C.C.C.C.C.C.C.C.C.C.C.C.C.C.C.C.C.C.C.C.C.C.C.C.C.C.C.C.C.",
"C.C.C.C.C.C.C.C.C.C.C.C.C.C.C.C.C.C.C.C.C.C.C.C.C.C.C.C.C.C.C.C.C.C.C.C.C.C.C.C.C.C.C.C.C.C.C.C.C.C.C.C.C.C.C.C.C.C.C.C.C.C.C.C.",
"C.C.C.C.C.C.C.C.C.C.C.C.C.C.C.C.C.C.C.C.C.C.C.C.C.C.C.C.C.C.C.C.C.C.C.C.C.C.C.C.C.C.C.C.C.C.C.C.C.C.C.C.C.C.C.C.C.C.C.C.C.C.C.C.",
"C.C.C.C.C.C.C.C.C.C.C.C.C.C.C.C.C.C.C.C.C.C.C.C.C.C.C.C.C.C.C.C.C.C.C.C.C.C.C.C.C.C.C.C.C.C.C.C.C.C.C.C.C.C.C.C.C.C.C.C.C.C.C.C.",
"C.C.C.C.C.C.C.C.C.C.C.C.C.C.C.C.C.C.C.C.C.C.C.C.C.C.C.C.C.C.C.C.C.C.C.C.C.C.C.C.C.C.C.C.C.C.C.C.C.C.C.C.C.C.C.C.C.C.C.C.C.C.C.C.",
"C.C.C.C.C.C.C.C.C.C.C.C.C.A N M n m N B C C.C.C.C.C.C.C.C.C.C.C.C.C.C.C.C.C.C.C.C.C.C.C.C.C.C.C.C.C.C.C.C.C.C.C.C.C.C.C.C.C.C.C.",
"C.C.C.C.C.C.C.C.C.C.C.V b l g d s d g k z x b c C.C.C.C.C.C.C.C.C.C.C.C.C.C.C.C.C.C.C.C.C.C.C.C.C.C.C.C.C.C.C.C.C.C.C.C.C.C.C.C.",
"C.C.C.C.C.C.C.C.C.C.m l i r q q w w w e r t y e N.N.M.B.C.C.C.C.C.C.C.C.C.C.C.C.C.C.C.C.B.N.N.M.M.M.m.m.m.M.C.C.C.C.C.C.C.C.C.C.",
"C.C.C.C.C.C.C.C.Z v h y q 0 ] ] ] 6 9 q w w w q 0 M.M.M.N.N.N.B.V.C.C.C.C.C.C.C.C.C.B.M.c.A A b.n.L P Y n.n.m.C.C.C.C.C.C.C.C.C.",
"C.C.C.C.C.C.C.B z s e q 7 1 ; Q W ~ ; 1 6 7 0 5 > m.o b.v.A z.x.b.M.N.B.V.C.C.C.B.c.a.y.8.q.e..   g.B l.B D v._ n.C.C.C.C.C.C.C.",
"C.C.C.C.C.C.V c s r q { ) ! E $ # R W ! > 1 5 2 1 - # X F Z k.C C Z h.l.z.z.c.j.s.t.3.1.;.2.4.    f.B N V A L v.v.b.C.C.C.C.C.C.",
"C.C.C.C.C.A c s w q 9 2 ; E U P L L P R W ^ , 1 2 , - @ K Z C m t.r.q.q.e.0.9.3.>.=.#.@.@.=.>.9..   N B V Z S I E { b.n.C.C.C.C.",
"C.C.C.C.C.n h t q 9 4 > = T K H H X X I Y Q - , 2 1 , * O X C d.p.x j g d 6.3.,.-.=.%.$.&.9 ,.9.i.  N V       Y ! 0 t > 3 K C.C.",
"C.C.C.C.V z y q 0 ' > = $ + G G X X D H J + % - 2 5 5 > * X . C B b l g 5.1.q 8 &.*.*.=.7 ;.<.s c N B Z G L Y Q 1 q r :       C.",
"C.C.C.C.b h w q 9 2 ! E I K G S A A A D D P T ! ` 1 5 > / Y . C C B m x e.d i 1.:.e e r y 3.6.h b N B Z H @ = ) 9 q $ , 1   u C.",
"C.C.C.V l u q 0 5 ( E Y L H S A Z Z Z A A J P E / , 2 > * E H A C C V V n l d 7.5.6.s f f h w.u.m N B A K E > 9 q O = , 1 * t C.",
"C.C.C.n g y q 0 ' ( Q T + o X A Z Z . . A D K O * > 1 - * E H A C C Z C V n c k e.j k x v b n m N N Z H T ~ 5 q e $ : , 2 * y C.",
"C.C.C c a r q 0 7 1 ; % + H A Z C . . A Z S F O ~ - , - ~ Y F A C C Z Z Z V N M u.m M N B B B B N C G U = _ | w i ; , < 3 * y C.",
"C.C.M z a t q q 9 2 ; % U H A Z C Z A Z Z A F T ~ - , ( ^ O H A C C Z Z Z Z C V V B V C V B V Z H U W _ 9 q e a > , < % * = p C.",
"C.Z n l $ O w q 0 6 > E P G Z Z C A A Z C A F T $ - , - * O H S C C Z Z Z Z A A Z Z C V V Z S P $ > ] q e i ; , , 1 3 0 r i C.C.",
"C.4 M , = u r q q 7 ) W U o A Z Z A X A Z S J T ~ ) 1 - / E H S C C C Z Z Z Z A Z Z C Z A J T ^ [ w r * : , 1 3 8 w t u p C.C.C.",
"C.8 1 , j s y e q 9 _ Q @ L A A A X X A Z S X O ~ - 1 > * O H S C C C Z Z Z Z A Z A A D K @ ^ 7 w + : < 4 C.C.C.C.C.C.C.C.C.C.C.",
"C.e 8 < c ; # t w 0 4 ; $ P H D X X D S S J I # - , 3 , - Q P D Z C C Z Z Z Z S S D F U W > 0 e * > C.C.C.C.C.C.C.C.C.C.C.C.C.C.",
"C.C.e 3 > : = u e w 7 , % U J J H H D D F I T ~ ` 1 5 1 - Q U F A Z C C Z A A D D H P @ /  .w j , C.C.C.C.C.C.C.C.C.C.C.C.C.C.C.",
"C.C.C.w 2 > : d o . 9 1 ! R Y Y Y I P I T E ~ ` 6 8 q | [ / O P F S A S S S D H P o ~ ' 0 r h M C.C.C.C.C.C.C.C.C.C.C.C.C.C.C.C.",
"C.C.C.C.0 1 b ; O w 0 ] ^ ! % W # # R # $ / _ 6 q   e X.5 > $ E L F S S S G X Y E & , o.r k M C.C.C.C.C.C.C.C.C.C.C.C.C.C.C.C.C.",
"C.C.C.C.C.8 < : * r O.} ` 1 , > > ) ) , 2 | q w . X r e w 6 ' / W O U P P U O $ ) | e y l B C.C.C.C.C.C.C.C.C.C.C.C.C.C.C.C.C.C.",
"C.C.C.C.C.t 2 > = y q q 9 9 9 7 6 [ } q w w r u @ @ d X r e ..5 > * W W R ! / , | +.u x C.C.C.C.C.C.C.C.C.C.C.C.C.C.C.C.C.C.C.C.",
"C.C.C.C.C.C.0 < : d t e q q w w w +.e r O f l : > > > ; j i r w q  .] , > ] 6 w e d n C.C.C.C.C.C.C.C.C.C.C.C.C.C.C.C.C.C.C.C.C.",
"C.C.C.C.C.C.t 4 , : a u X t t O i d g ; > > , 1 2 2 1 , > c * d y w w q 0 o.w y j M C.C.C.C.C.C.C.C.C.C.C.C.C.C.C.C.C.C.C.C.C.C.",
"C.C.C.C.C.C.C.w 1 , k = $ g h : > > < 1 4 9 e C.C.C.t q 8 2 , > : & u t e y d x B C.C.C.C.C.C.C.C.C.C.C.C.C.C.C.C.C.C.C.C.C.C.C.",
"C.C.C.C.C.C.C.= % < , > k c > < 3 C.C.C.C.C.C.C.C.C.C.C.C.C.C.C.1 > ; j d l . + C.C.C.C.C.C.C.C.C.C.C.C.C.C.C.C.C.C.C.C.C.C.C.C.",
"C.C.C.C.C.C.C.C.* 3 < , b < 2 0 C.C.C.C.C.C.C.C.C.C.C.C.C.C.C.C.C.$ < > v N # C.C.C.C.C.C.C.C.C.C.C.C.C.C.C.C.C.C.C.C.C.C.C.C.C.",
"C.C.C.C.C.C.C.C.= 9 1 1 1 8 e C.C.C.C.C.C.C.C.C.C.C.C.C.C.C.C.C.C.= $ 3 1 * * C.C.C.C.C.C.C.C.C.C.C.C.C.C.C.C.C.C.C.C.C.C.C.C.C.",
"C.C.C.C.C.C.C.C.; * 7 7 * * C.C.C.C.C.C.C.C.C.C.C.C.C.C.C.C.C.C.C.; * 0 9 * C.C.C.C.C.C.C.C.C.C.C.C.C.C.C.C.C.C.C.C.C.C.C.C.C.C.",
"C.C.C.C.C.C.C.C., = * e * C.C.C.C.C.C.C.C.C.C.C.C.C.C.C.C.C.C.C.C.C.- = r ; C.C.C.C.C.C.C.C.C.C.C.C.C.C.C.C.C.C.C.C.C.C.C.C.C.C.",
"C.C.C.C.C.C.C.C.1 ; = t = C.C.C.C.C.C.C.C.C.C.C.C.C.C.C.C.C.C.C.C.C., ; - , C.C.C.C.C.C.C.C.C.C.C.C.C.C.C.C.C.C.C.C.C.C.C.C.C.C.",
"C.C.C.C.C.C.C.C.C.1 ; : : C.C.C.C.C.C.C.C.C.C.C.C.C.C.C.C.C.C.C.C.C.4 1 > 1 C.C.C.C.C.C.C.C.C.C.C.C.C.C.C.C.C.C.C.C.C.C.C.C.C.C.",
"C.C.C.C.C.C.C.C.C.4 , , , 4 C.C.C.C.C.C.C.C.C.C.C.C.C.C.C.C.C.C.C.C.C.5 1 4 7 C.C.C.C.C.C.C.C.C.C.C.C.C.C.C.C.C.C.C.C.C.C.C.C.C.",
"C.C.C.C.C.C.C.C.C.C.4 4 1 7 8 C.C.C.C.C.C.C.C.C.C.C.C.C.C.C.C.C.C.C.C.C.5 7 7 9 C.C.C.C.C.C.C.C.C.C.C.C.C.C.C.C.C.C.C.C.C.C.C.C.",
"C.C.C.C.C.C.C.C.C.C.C.7 7 8 0 C.C.C.C.C.C.C.C.C.C.C.C.C.C.C.C.C.C.C.C.C.C.8 9 0 C.C.C.C.C.C.C.C.C.C.C.C.C.C.C.C.C.C.C.C.C.C.C.C.",
"C.C.C.C.C.C.C.C.C.C.C.C.C.C.C.C.C.C.C.C.C.C.C.C.C.C.C.C.C.C.C.C.C.C.C.C.C.C.C.C.C.C.C.C.C.C.C.C.C.C.C.C.C.C.C.C.C.C.C.C.C.C.C.C.",
"C.C.C.C.C.C.C.C.C.C.C.C.C.C.C.C.C.C.C.C.C.C.C.C.C.C.C.C.C.C.C.C.C.C.C.C.C.C.C.C.C.C.C.C.C.C.C.C.C.C.C.C.C.C.C.C.C.C.C.C.C.C.C.C.",
"C.C.C.C.C.C.C.C.C.C.C.C.C.C.C.C.C.C.C.C.C.C.C.C.C.C.C.C.C.C.C.C.C.C.C.C.C.C.C.C.C.C.C.C.C.C.C.C.C.C.C.C.C.C.C.C.C.C.C.C.C.C.C.C.",
"C.C.C.C.C.C.C.C.C.C.C.C.C.C.C.C.C.C.C.C.C.C.C.C.C.C.C.C.C.C.C.C.C.C.C.C.C.C.C.C.C.C.C.C.C.C.C.C.C.C.C.C.C.C.C.C.C.C.C.C.C.C.C.C.",
"C.C.C.C.C.C.C.C.C.C.C.C.C.C.C.C.C.C.C.C.C.C.C.C.C.C.C.C.C.C.C.C.C.C.C.C.C.C.C.C.C.C.C.C.C.C.C.C.C.C.C.C.C.C.C.C.C.C.C.C.C.C.C.C.",
"C.C.C.C.C.C.C.C.C.C.C.C.C.C.C.C.C.C.C.C.C.C.C.C.C.C.C.C.C.C.C.C.C.C.C.C.C.C.C.C.C.C.C.C.C.C.C.C.C.C.C.C.C.C.C.C.C.C.C.C.C.C.C.C.",
"C.C.C.C.C.C.C.C.C.C.C.C.C.C.C.C.C.C.C.C.C.C.C.C.C.C.C.C.C.C.C.C.C.C.C.C.C.C.C.C.C.C.C.C.C.C.C.C.C.C.C.C.C.C.C.C.C.C.C.C.C.C.C.C.",
"C.C.C.C.C.C.C.C.C.C.C.C.C.C.C.C.C.C.C.C.C.C.C.C.C.C.C.C.C.C.C.C.C.C.C.C.C.C.C.C.C.C.C.C.C.C.C.C.C.C.C.C.C.C.C.C.C.C.C.C.C.C.C.C."
};
