/* XPM */
static char *result[] = {
/* columns rows colors chars-per-pixel */
"64 64 12 1 ",
"  c #140C1C",
". c #442434",
"X c #346524",
"o c #30346D",
"O c #4E4A4E",
"+ c #757161",
"@ c #6DAA2C",
"# c #DAD45E",
"$ c #6DC2CA",
"% c #8595A1",
"& c #D2AA99",
"* c #DEEED6",
/* pixels */
"                                                                ",
" +%%%%%%%%%%%%++O+++%%%%%%+O.OO  O++++++++O+O ..OOO%%%%+++%%++O ",
" %+++++++OOOOOOOOOO++++OO+++O..  %%%++%%++++ +#&%++OOOOOOO++++O ",
" %++.OO+OOO..OOOOOO++O+O+%+O+O.  OO+OOO+++%%.&+O++OOO.O++%++%+O ",
" ++.OOOO.OO.O+O++OOO+++OO+OOOOO  OO+OOO+++%%.$OO++OO.++%O+OO+OO ",
" OOOOOO+..OO++O+O.OOOOO.OOOOO+O  .OO.OOOO+++.%+OOOOOO++%O++O++O ",
" %OOOO++...OOOOO..+O+OOO+OOO++O  OOOOO++OOO+O++OO..O+%%++OO+++O ",
" %O+O+++..O......++O+O+O++OO+OO  +++OO++OOO+++++O..OOOO+++OO++O ",
" %OOO++O.++O+OOO++%+OOO.+OOOOOO  +++OOOOOO++%++OOOOOOOO++OOOO+O ",
" %+OOOOOOOOOO .O%+++OOOOO+OO+OO  %OOO...OO+++OOO+O++O++OO+++++O ",
" ++OO..OOOOOO.O+OOO++O.OO++OO.O  +OOO.OO+OOOO.O++O++++O++++O+%O ",
" ++OO..OOOOO+O++O++%+O.OOO++OOO  +OOOO.O+OOO+.O+++%%+++O+OOO+%+ ",
" +++OOOOOOOO%%++O++&+O.+%+O+OOO  ++O+OO+OOOO+O++++%%O++OOOO+++O ",
" +%++OOO+%+O+++++%&%+OO%OO.+OOO  +O++OOOOOOOO+++O++OO++++OO++OO ",
" ++O+OOO%OO.OOO++O+O+OO+OO.+OO.  +O++OO+%%+OO+++OO++++++OO+++++ ",
" ++++OOO+OO.OOO+OO+++OOO..O+O.   OO++O+%++.OOO+OOO+O+%++O+%%O++ ",
" +++OO+OO..O+OO+OO+O+OOOOOXOO..  OO+OOO%++.O+OOOOOOO++O+O+%%O++ ",
" ++OOOO.OOOOO.OOOO+O++O++OO..OO  ++O++++..OOO.O++O+++++OO+OO.+O ",
" %+OOOOOOOOOOOO+OOOOOOO++O .%+O  +O.OOOO+OOOOOO++OOOOOOO++++++O ",
" %OOOO+.O.+OOOOOOXOOO+OOOO.+++X  +OOOO.OOOO%++OO+%%++OOO++++++O ",
" %+OOO. O+OOO+OOOOO+OO.OO.O+OOO  OOOO.O+OOO++.OO%++OOOO+%%++O+O ",
" %OOOOOOO.OOOO OO++O XOO.OOOO..  O+OO.O+OOO..OO+%++.++++%%++++O ",
" %O++OOOOOOOOOOO+OO.OOOO.O.XO..  O++OO+OOO+OOOOO+O.OO+++++++OOO ",
" +O++OXOOOOOOOOO+OO OXX. .OO.    +++OOOOOOO+OOOO+%+OOOOO++O+O+O ",
" +OOOOO.O  .OOOOO. .OXX O++OO.   +O+OOO+++O++OOO++++O+++O+OO..  ",
" +++OO. O.OO+O.XXOOO+O .+OOXXO   OO+OO++++++@%+OOOO++++++OO O+O ",
" +OOO .+O.OO+OOXXO+.O. +OO+XX.   OOO+O.O+@X+%%+OOO+++OO++OO.++O ",
" OO. .%OOO+++OOOOO. O .+OOO O    +OO+.++%XX+++++OO+%+OO++O.O%+O ",
"  .O++OO.OOOOXOO..OOO .OO.OO     ++O+O++@OOOOO++OOO++++OO .%++. ",
" O++OO+.O..OOOO%+.OO. ..... .O. .+++++%@+OO+O+XOOO+%++O .O%+++. ",
" OOOOO. OO..OO.+O.OO.       O   @+O#O+@OOXXO.X@OOO+%+. O+%+++O. ",
"                                #@X*X@#X.    .X.                ",
"                              .o$*@#@*@+O.    o                 ",
" O++++++++O+O ..OOO%@@%+++%@.@#*@##$#@@#$@X .....OO...........O ",
" %%%++%%++++ +#&%++OOOOOOO++ oX@*&$@+@#@+X OXXOXX+@%+OOOOOOOO.. ",
" OO+OOO+++@%.&+O++XXO.O++%++% oOX@&+$&@XX ...OOOOOX++O+O+%+OOO. ",
" OO+OOO+++%%.$OO++XX.++%O+OX+O.@#*#X#+##.o .O+O++OXX+++OO+OOOOO ",
" .OO.OOOO+++.%+OOOOOO++@O++O+.@#$@Xo*. @X .O++X+O.XXOOO.OOOOO++ ",
" OOOOO++XXO+O++OO..O+%@++OO+++ XXo.X@ o o .OXXOO..+O+OOO+OOO+++ ",
" +++OO++XXO+++++O..OXXO+++XX++O.   oX .. .O......++O+O+O++OO+O+ ",
" +++OOOOOO++%++OOOOOXXO++OXXO+X  .o . OO.O+O+OOO+@%+OOO.+OOOOO+ ",
" %OOO...OO+++OOO+O++O++OO+++++X  .O. .+@XOOOO .O%+++OOOOO+OO+O+ ",
" +OOO.OO+OOOO.O++O++++O++++O+@O  .X.OO&XXOXOO.O+OOO++O.OO++OO.+ ",
" +OOOO.O+OXX+.O+++@%+++O+XXO+%+  OXO+&+OOOOO+O++O++%+O.OOO++OO+ ",
" ++O+OO+OOXX+O++++%%O++OOXX+++O  OOOXOXOOXOO%@%+O++&+O.+%+O+OO+ ",
" +O++OOOOOOOO+++O++OO++++OO++OX  O..OOOO+%+O+++++%&%+OO%OO.+OOO ",
" +O++OO+%%+OO+++OO++++++OO+++++  O..O%@%+OO.@XO++O+O+OO+OO.+OO. ",
" OO++O+%++.OOO+OOO+O+%++O+@%O++  .O++OOO++O.XXO+OO+++OOO..O+O.  ",
" OO+OOO%++.O+OOOOOOO++O+O+%%O++  .O++O++%+.O+OO+OO+O+OOOOOOOO.. ",
" ++O++++..OOO.O++O+++++OO+OO.+O  .+%+O++&+OOO.OOOO+O++O++OO..O+ ",
" +O.OOOO+OOOOOO++OOOOOOO++++++O  .+O++%&%+OXXOO+OOOOOOO++O .%+O ",
" +OOOO.OOOO%++OO+%%++OOO++++++O  OOO++O+O++XXOOOOOOOO+OOOO.+++O ",
" OOOO.O+OOO++.OO%++OOOO+%%++O+O  OOO+OO+++OOO+OOOOO+OO.OO.O+%%+ ",
" O+OO.O+OOO..OO+%++.++++%%++++O  ..OOOOOO.OOOO OO++O OOO.OOO%%+ ",
" O++OO+OOO+OOOOO+O.OO+++++++OOO  ..OO..OOOOOOOOO+OO.OOOO.O.OO+O ",
" +++OOOOOOO+OOOO+%+OOOOO++O+O+O  .O+O..OOOOOOOOO+OO OOO. .OO++O ",
" +O+OOO+++O++OOO++++O+++O+OO..   OOOOOO.O  .OOOOO. .OOO O++O+++ ",
" OO+OO++++++%%+OOOO++++++OO O+O  .++OO. O.OO+O.OOOOO+O .+O%#%+% ",
" OOO+O.O+OO+%%+OOO+++OO++OO.++O  .OOO .+O.OO+OOOOO+.O. +OO#++O% ",
" +OO+.++%OO+++++OO+%+OO++O.O%+O  OO. .%OOO+++OOOOO. O .+OO%+O.% ",
" ++O+O++%OOOOO++OOO++++OO .%++.   .O++OO.OOOOOOO..OOO .OO.+O.O% ",
" +++++%%+OO+OOOOOO+%++O .O%+++.  O++OO+.O..OOOO%+.OO. ....++++% ",
" OOOOO.OOOOO.OOOOO+%+. O+%+++O.  O+%%+. O+%%+%%%%%+O. O++++%%%% ",
"                                                                "
};
