/* XPM */
static char *result[] = {
/* columns rows colors chars-per-pixel */
"64 64 64 1 ",
"  c #010101",
". c #090909",
"X c gray11",
"o c #252525",
"O c #282728",
"+ c #2C2C2C",
"@ c #343434",
"# c #393838",
"$ c #454544",
"% c #4F4D4D",
"& c #545454",
"* c #575956",
"= c #5C5C5C",
"- c #5B635B",
"; c #646464",
": c #666B64",
"> c #6D6D6D",
", c #706F6F",
"< c #737373",
"1 c #777877",
"2 c #777878",
"3 c #7C7C7C",
"4 c #7F807F",
"5 c #80827F",
"6 c #848484",
"7 c #878888",
"8 c #8C8C8C",
"9 c #908F8F",
"0 c #939393",
"q c #989797",
"w c #9C9C9C",
"e c #A09F9F",
"r c #A09FA0",
"t c #A4A3A4",
"y c #A8A7A7",
"u c #ABABAB",
"i c #B0AFAF",
"p c #A9B3A9",
"a c #B4B3B3",
"s c #B4BCB5",
"d c #B7B7B8",
"f c #BBBBBB",
"g c #C0BEBF",
"h c #C0BFC0",
"j c #C3C3C3",
"k c #C8C6C6",
"l c #CCCBCB",
"z c #D0CDD0",
"x c #D3D3D3",
"c c #D7D7D8",
"v c #DBDBDC",
"b c #E0DFDF",
"n c #E0E8DF",
"m c #E5E4E4",
"M c #E8E5E6",
"N c #EBE5E8",
"B c #ECECEC",
"V c #F0EEEF",
"C c #F1EFF0",
"Z c #F4F4F4",
"A c #F7F7F8",
"S c #F9F7F8",
"D c #FFFEFF",
"F c None",
/* pixels */
"FFFFFFFFFFFFFFFFFFFFFFFFFFFFFFFFFFFFFFFFFFFFFFFFFFFFFFFFFFFFFFFF",
"FFFFFFFFFFFFFFFFFFFFFFFFFFFFFFFFFFFFFFFFFFFFFFFFFFFFFFFFFFFFFFFF",
"FFFFFFFFFFFFFFFFFFFFFFFFFFFFFFFFFFFFFFFFFFFFFFFFFFFFFFFFFFFFFFFF",
"FFFFFFFFFFFFFFFFFFFFFFFFFFFFFFFFFFFFFFFFFFFFFFFFFFFFFFFFFFFFFFFF",
"FFFFFFFFFFFFFFFFFFFFFFFFFFFFFFFFFFFFFFFFFFFFFFFFFFFFFFFFFFFFFFFF",
"FFFFFFFFFFFFFFFFFFFFFFFFFFFFFFFFFFFFFFFFFFFFFFFFFFFFFFFFFFFFFFFF",
"FFFFFFFFFFFFFFFFFFFFFFFFFFFFFFFFFFFFFFFFFFFFFFFFFFFFFFFFFFFFFFFF",
"FFFFFFFFFFFFFFFFFFFFFFFFFFFF>>wjcvkqFFFFFFFFFFFFFFFFFFFFFFFFFFFF",
"FFFFFFFFFFFFFFFFFFFFFFFFFFFF6NDDDDDDAFFFFFFFFFFFFFFFFFFFFFFFFFFF",
"FFFFFFFFFFFFFFFFFFFFFFFFFF=CBBDDDDDDDDFFFFFFFFFFFFFFFFFFFFFFFFFF",
"FFFFFFFFFFFFFFFFFFFFFFFFFFMiADDDDDDDDDDFFFFFFFFFFFFFFFFFFFFFFFFF",
"FFFFFFFFFFFFFFFFFFFFFFFFFN<yDDDDDDDDDDDxFFFFFFFFFFFFFFFFFFFFFFFF",
"FFFFFFFFFFFFFFFFFFFFFFFFlw0DDDDDDDDDDDDDFFFFFFFFFFFFFFFFFFFFFFFF",
"FFFFFFFFFFFFFFFFFFFFFFF8c<DDDDDDDDDDDDDDdFFFFFFFFFFFFFFFFFFFFFFF",
"FFFFFFFFFFFFFFFFFFFFFFFjwgDDDDDDDDDDDDDZBFFFFFFFFFFFFFFFFFFFFFFF",
"FFFFFFFFFFFFFFFFFFFFFFFl3DDDDDDDDDDDDDDZD6FFFFFFFFFFFFFFFFFFFFFF",
"FFFFFFFFFFFFFFFFFFFFFFFVlDDDDDDDDDDDDDDAAtFFFFFFFFFFFFFFFFFFFFFF",
"FFFFFFFFFFFFFFFFFFFFFFjflDDDDDDDDDDDDDDDZkFFFFFFFFFFFFFFFFFFFFFF",
"FFFFFFFFFFFFFFFFFFFFFFxqlDDDjmDDDDZ>dDDDBmFFFFFFFFFFFFFFFFFFFFFF",
"FFFFFFFFFFFFFFFFFFFFFFMBDDDf.&ADDDw #BDDVA6FFFFFFADaFFFFFFFFFFFF",
"FFFFFFFFFFFFFFFFFFFFFFAADDD2oOjDDD>+oaDDZD9FFFFFDDDDFFFFFFFFFFFF",
"FFFFFFFFFFFFFFFFFFFFF0CBDDD,+OyDDD=#owDDAVdFFFFBDDDDvFFFFFFFFFFF",
"FFFFFFFFFFFFFFFFFFFFF0VVDDD1OOfDDD*#OyDDDmZFFFFDDSDDDFFFFFFFFFFF",
"FFFFFFFFFFFFFFdmjFFFF8VDDDDf #BDDD, +mDDDBD06>2DDAlAD8FFFFFFFFFF",
"FFFFFFFFFFFFFDDDDfFFFymDDDDDrhDDDDv=dDDDDACaqxyDDD<jDlFFFFFFFFFF",
"FFFFFFFFFFFFDDDZDD;>q0NDDDDDDDDDDDDDDDDDDDBZ2iDADD7hDDFFFFFFFFFF",
"FFFFFFFFFFFfDDDr6DmfxzDDDDDDDDDDDDDDDDDDDDDCvxBDDDhcDBvFFFFFFFFF",
"FFFFFFFFFFFBDBmvdDDDDDDDDDDDDDDDDDDDDDDDDDDSCmMDDx6yDvDFFFFFFFFF",
"FFFFFFFFFFFDDj6DavDDDDDDDDDDDDDD9jDDDDDDDDDDDDDDD86qDmmDFFFFFFFF",
"FFFFFFFFFF0DDl5D5wDDDDDDDDDDDDDD=yDDDDDDDDDDDfjDmqu6DDDyFFFFFFFF",
"FFFFFFFFFFyDDv6Df6DDDDDDDDDDDDDDDDDDDDDDDDDDD8tDl0hqAtFFFFFFFFFF",
"FFFFFFFFFFvDBM6mN5ADfbDDDDDDDDDDDDDDDDDDDDDDDAADyqv:*FFFFFFFFFFF",
"FFFFFFFFFFDDBA6fD7lD;aDDDDDDDDDDDDDDDDDDDDDDDalD8tv$:FFFFFFFFFFF",
"FFFFFFFFFFtyZDwqD8yDlmDDDDDDDDDDDDDDDDDDDDDDD2yD6dAyFFFFFFFFFFFF",
"FFFFFFFFFF<$$w66Dt7DevDDDDDDDDDDDDDDDDDDDDDDD7iA8llFFFFFFFFFFFFF",
"FFFFFFFFFFFFFFFqDc6D>jDDDDDDDDDDDDDDDDDDDDDVD8fB=FFFFFFFFFFFFFFF",
"FFFFFFFFFFFFFFFFFw8M4lDDDDDSDDDDDDDClDDDDDDfawljFFFFFFFFFFFFFFFF",
"FFFFFFFFFFFFFFFF&;&c7lDDDDtjDDDDDDDb,CDDDDDy0wvaFFFFFFFFFFFFFFFF",
"FFFFFFFFFFFFFFFFFn*i0lDDDD3aDDDDDDDB4MDDDDDa00xDFFFFFFFFFFFFFFFF",
"FFFFFFFFFFFFFFFFF71m6lDDDD7fDDDDDDDC3bDDDDDf7txFFFFFFFFFFFFFFFFF",
"FFFFFFFFFFFFFFFF%:MA3kDDDD6jDDDDDDDA2xDDDDDf80=FFFFFFFFFFFFFFFFF",
"FFFFFFFFFFFFFFFF=SDb4lDDDD6jDDDDxCDD2kDDDDDh0=FFFFFFFFFFFFFFFFFF",
"FFFFFFFFFFFFFFFFFzDm3lDDDD6kDDDD;xDD3hDDDDDj2FFFFFFFFFFFFFFFFFFF",
"FFFFFFFFFFFFFFFFF*kD6lDDDD4lDDDAumDD5aDDDDDj<FFFFFFFFFFFFFFFFFFF",
"FFFFFFFFFFFFFFFFFF&66xDDDD6lDDDDDADD6yDDDDDf6FFFFFFFFFFFFFFFFFFF",
"FFFFFFFFFFFFFFFFFFFX;bADDD6lDMDmtADD6eDDDDDuqFFFFFFFFFFFFFFFFFFF",
"FFFFFFFFFFFFFFFFFFFF4xZDDA6cA6Sx>DDD7wDZDDDttFFFFFFFFFFFFFFFFFFF",
"FFFFFFFFFFFFFFFFFFFF>mmADA6vA8Sx6DDD9wDbBBAa<FFFFFFFFFFFFFFFFFFF",
"FFFFFFFFFFFFFFFFFFFF<DmmAA6vBxDj6DDD00DmmbDfFFFFFFFFFFFFFFFFFFFF",
"FFFFFFFFFFFFFFFFFFFFfDmmBv6mv6Dj6DDDq9DmmmDtFFFFFFFFFFFFFFFFFFFF",
"FFFFFFFFFFFFFFFFFFFFFvDDDm7Bc3Dj7DDDw8DmmmDwFFFFFFFFFFFFFFFFFFFF",
"FFFFFFFFFFFFFFFFFFFFFFF8856Zc6Dh6DDDe6DmmmDFFFFFFFFFFFFFFFFFFFFF",
"FFFFFFFFFFFFFFFFFFFFFFF&p-;Dx4Df7DDDy5DmCDyFFFFFFFFFFFFFFFFFFFFF",
"FFFFFFFFFFFFFFFFFFFFFFFFs;dDl6Dd7DDAmbADkFFFFFFFFFFFFFFFFFFFFFFF",
"FFFFFFFFFFFFFFFFFFFFFFFF$fDVl6Dd7DDDjzjFFFFFFFFFFFFFFFFFFFFFFFFF",
"FFFFFFFFFFFFFFFFFFFFFFFFtDmBl6Dd8ADDyFFFFFFFFFFFFFFFFFFFFFFFFFFF",
"FFFFFFFFFFFFFFFFFFFFFFFFFlZDv6Dp8ABDuFFFFFFFFFFFFFFFFFFFFFFFFFFF",
"FFFFFFFFFFFFFFFFFFFFFFFFFFFqq0Da7AmDqFFFFFFFFFFFFFFFFFFFFFFFFFFF",
"FFFFFFFFFFFFFFFFFFFFFFFFFFFF=2Df7ZmAyFFFFFFFFFFFFFFFFFFFFFFFFFFF",
"FFFFFFFFFFFFFFFFFFFFFFFFFFFFFFAh6CMDtFFFFFFFFFFFFFFFFFFFFFFFFFFF",
"FFFFFFFFFFFFFFFFFFFFFFFFFFFFFFZj2DDy*FFFFFFFFFFFFFFFFFFFFFFFFFFF",
"FFFFFFFFFFFFFFFFFFFFFFFFFFFFFFuA0mFFFFFFFFFFFFFFFFFFFFFFFFFFFFFF",
"FFFFFFFFFFFFFFFFFFFFFFFFFFFFFFFt7=FFFFFFFFFFFFFFFFFFFFFFFFFFFFFF",
"FFFFFFFFFFFFFFFFFFFFFFFFFFFFFFFFFFFFFFFFFFFFFFFFFFFFFFFFFFFFFFFF"
};
