/* XPM */
static char *result[] = {
/* columns rows colors chars-per-pixel */
"64 64 64 1 ",
"  c #010101",
". c #090909",
"X c gray11",
"o c #252525",
"O c #282728",
"+ c #2C2C2C",
"@ c #343434",
"# c #393838",
"$ c #454544",
"% c #4F4D4D",
"& c #545454",
"* c #575956",
"= c #5C5C5C",
"- c #5B635B",
"; c #646464",
": c #666B64",
"> c #6D6D6D",
", c #706F6F",
"< c #737373",
"1 c #777877",
"2 c #777878",
"3 c #7C7C7C",
"4 c #7F807F",
"5 c #80827F",
"6 c #848484",
"7 c #878888",
"8 c #8C8C8C",
"9 c #908F8F",
"0 c #939393",
"q c #989797",
"w c #9C9C9C",
"e c #A09F9F",
"r c #A09FA0",
"t c #A4A3A4",
"y c #A8A7A7",
"u c #ABABAB",
"i c #B0AFAF",
"p c #A9B3A9",
"a c #B4B3B3",
"s c #B4BCB5",
"d c #B7B7B8",
"f c #BBBBBB",
"g c #C0BEBF",
"h c #C0BFC0",
"j c #C3C3C3",
"k c #C8C6C6",
"l c #CCCBCB",
"z c #D0CDD0",
"x c #D3D3D3",
"c c #D7D7D8",
"v c #DBDBDC",
"b c #E0DFDF",
"n c #E0E8DF",
"m c #E5E4E4",
"M c #E8E5E6",
"N c #EBE5E8",
"B c #ECECEC",
"V c #F0EEEF",
"C c #F1EFF0",
"Z c #F4F4F4",
"A c #F7F7F8",
"S c #F9F7F8",
"D c #FFFEFF",
"F c None",
/* pixels */
"FFFFFFFFFFFFFFFFFFFFFFFFFFFFFFFFFFFFFFFFFFFFFFFFFFFFFFFFFFFFFFFF",
"FFFFFFFFFFFFFFFFFFFFFFFFFFFFFFFFFFFFFFFFFFFFFFFFFFFFFFFFFFFFFFFF",
"FFFFFFFFFFFFFFFFFFFFFFFFFFFFFFFFFFFFFFFFFFFFFFFFFFFFFFFFFFFFFFFF",
"FFFFFFFFFFFFFFFFFFFFFFFFFFFFFFFFFFFFFFFFFFFFFFFFFFFFFFFFFFFFFFFF",
"FFFFFFFFFFFFFFFFFFFFFFFFFFFF>>ejcxjwFFFFFFFFFFFFFFFFFFFFFFFFFFFF",
"FFFFFFFFFFFFFFFFFFFFFFFFFFFF6MDDDDDDAFFFFFFFFFFFFFFFFFFFFFFFFFFF",
"FFFFFFFFFFFFFFFFFFFFFFFFFF=CMCDDDDDDDDFFFFFFFFFFFFFFFFFFFFFFFFFF",
"FFFFFFFFFFFFFFFFFFFFFFFFFFNiDDDDDDDDDDDFFFFFFFFFFFFFFFFFFFFFFFFF",
"FFFFFFFFFFFFFFFFFFFFFFFFFN<yDDDDDDDDDDDxFFFFFFFFFFFFFFFFFFFFFFFF",
"FFFFFFFFFFFFFFFFFFFFFFFFlr9DDDDDDDDDDDDDFFFFFFFFFFFFFFFFFFFFFFFF",
"FFFFFFFFFFFFFFFFFFFFFFF8x1DDDDDDDDDDDDDDaFFFFFFFFFFFFFFFFFFFFFFF",
"FFFFFFFFFFFFFFFFFFFFFFFjwfDDDDDDDDDDDDDABFFFFFFFFFFFFFFFFFFFFFFF",
"FFFFFFFFFFFFFFFFFFFFFFFl3DDDDDDDDDDDDDDAD6FFFFFFFFFFFFFFFFFFFFFF",
"FFFFFFFFFFFFFFFFFFFFFFFVzDDDDDDDDDDDDDDSStFFFFFFFFFFFFFFFFFFFFFF",
"FFFFFFFFFFFFFFFFFFFFFFgflDDDDDDDDDDDDDDDZkFFFFFFFFFFFFFFFFFFFFFF",
"FFFFFFFFFFFFFFFFFFFFFFxwlDDDjMDDDDZ>aDDDBMFFFFFFFFFFFFFFFFFFFFFF",
"FFFFFFFFFFFFFFFFFFFFFFMCDDDf.&ADDDw @BDDBS6FFFFFFFFFFFFFFFFFFFFF",
"FFFFFFFFFFFFFFFFFFFFFFAADDD2oOjDDD>+OaDDZS0FFFFFFSDaFFFFFFFFFFFF",
"FFFFFFFFFFFFFFFFFFFFF9BZDDD,+OyDDD=#owDDAZdFFFFFDDDDFFFFFFFFFFFF",
"FFFFFFFFFFFFFFFFFFFFF0CBDDD1OOdDDD*#oyDDSMAFFFFBDDDDmFFFFFFFFFFF",
"FFFFFFFFFFFFFFamjFFFF8CDDDDf #BDDD< @mDDDBD06FFDDSDDDFFFFFFFFFFF",
"FFFFFFFFFFFFFDDDDdFFFyMDDDDDrhDDDDc=aDDDDAZaq>3DDAlSD8FFFFFFFFFF",
"FFFFFFFFFFFFDDDZDD;>q0MDDDDDDDDDDDDDDDDDDDBC2xyDDD<jDlFFFFFFFFFF",
"FFFFFFFFFFFfDDDt6DMdxzDDDDDDDDDDDDDDDDDDDDDBciDSDD7hDDFFFFFFFFFF",
"FFFFFFFFFFFBDBmcdDDDDDDDDDDDDDDDDDDDDDDDDDDSZxBSDDjxDBvFFFFFFFFF",
"FFFFFFFFFFFDDk6DavDDDDDDDDDDDDDD9jDDDDDDDDDDDmBDDx6tDvDFFFFFFFFF",
"FFFFFFFFFF8DDl4D5wDDDDDDDDDDDDDD=yDDDDDDDDDDDDDDD84wDmMDFFFFFFFF",
"FFFFFFFFFFyDSv6Dd6DDDDDDDDDDDDDDDDDDDDDDDDDDDdjDN0u6DDDyFFFFFFFF",
"FFFFFFFFFFvDBB6mB6SDfnDDDDDDDDDDDDDDDDDDDDDDD8tDl0fqStFFFFFFFFFF",
"FFFFFFFFFFDDBS6dD6lD;aDDDDDDDDDDDDDDDDDDDDDDDZADu0b:&FFFFFFFFFFF",
"FFFFFFFFFFtyCDwqD8ySlbDDDDDDDDDDDDDDDDDDDDDDDalD9yc$:FFFFFFFFFFF",
"FFFFFFFFFF,$$w66Dt8DrvDDDDDDDDDDDDDDDDDDDDDDD2tD4aDyFFFFFFFFFFFF",
"FFFFFFFFFFFFFFFwDc3D>jDDDDDDDDDDDDDDDDDDDDDZD8iS8lzFFFFFFFFFFFFF",
"FFFFFFFFFFFFFFFFFr8B6lDDDDDSDDDDDDDClDDDDDDaa8dB=FFFFFFFFFFFFFFF",
"FFFFFFFFFFFFFFFF&;&x8lDDDDtjDDDDDDDb,CDDDDDu0wljFFFFFFFFFFFFFFFF",
"FFFFFFFFFFFFFFFFFn*u0lDDDD2aDDDDDDDB4MDDDDDa0wcaFFFFFFFFFFFFFFFF",
"FFFFFFFFFFFFFFFFF81m6lDDDD8fDDDDDDDA3bDDDDDd70xDFFFFFFFFFFFFFFFF",
"FFFFFFFFFFFFFFFF%;MA3lDDDD6jDDDDDDDS2xDDDDDf8txFFFFFFFFFFFFFFFFF",
"FFFFFFFFFFFFFFFF-ADb3lDDDD6jDDDDxCDD2lDDDDDf00=FFFFFFFFFFFFFFFFF",
"FFFFFFFFFFFFFFFFFlDm3lDDDD6kDDDD;xDD3fDDDDDj2=FFFFFFFFFFFFFFFFFF",
"FFFFFFFFFFFFFFFFF*kD6lDDDD6jDDDSuMDD5aDDDDDj<FFFFFFFFFFFFFFFFFFF",
"FFFFFFFFFFFFFFFFFF&67xDDDD6lDDDDDZDD6yDDDDDd6FFFFFFFFFFFFFFFFFFF",
"FFFFFFFFFFFFFFFFFFFX;vSDDD6zDMDMyADD7eDDDDDu0FFFFFFFFFFFFFFFFFFF",
"FFFFFFFFFFFFFFFFFFFF6xZDDS6cS6Sx>DDD7eSZDDDyyFFFFFFFFFFFFFFFFFFF",
"FFFFFFFFFFFFFFFFFFFF>bMADA6vA8Dx6DDD8wSmBBAa<FFFFFFFFFFFFFFFFFFF",
"FFFFFFFFFFFFFFFFFFFF1DmmSA7cBzDj6DDD00DmmbDfFFFFFFFFFFFFFFFFFFFF",
"FFFFFFFFFFFFFFFFFFFFdDmbBc6mv6Dj6DDDw8DmmmStFFFFFFFFFFFFFFFFFFFF",
"FFFFFFFFFFFFFFFFFFFFFvDDDM7Bc3Dj7DDDw8DMmmDwFFFFFFFFFFFFFFFFFFFF",
"FFFFFFFFFFFFFFFFFFFFFFF8966Zx6Dj6DDDe6DMMmDFFFFFFFFFFFFFFFFFFFFF",
"FFFFFFFFFFFFFFFFFFFFFFF&p-;Dx6Df7DDDt6SmCDyFFFFFFFFFFFFFFFFFFFFF",
"FFFFFFFFFFFFFFFFFFFFFFFFs:aDl6Dd8DDAmbDDlFFFFFFFFFFFFFFFFFFFFFFF",
"FFFFFFFFFFFFFFFFFFFFFFFF$fDBl6Dd7DDDhxjFFFFFFFFFFFFFFFFFFFFFFFFF",
"FFFFFFFFFFFFFFFFFFFFFFFFtDmBl6Da8SDDyFFFFFFFFFFFFFFFFFFFFFFFFFFF",
"FFFFFFFFFFFFFFFFFFFFFFFFFlZDc7Dp8ABDyFFFFFFFFFFFFFFFFFFFFFFFFFFF",
"FFFFFFFFFFFFFFFFFFFFFFFFFFF0w0Da7AmDwFFFFFFFFFFFFFFFFFFFFFFFFFFF",
"FFFFFFFFFFFFFFFFFFFFFFFFFFFF=1Dd7ZMAyFFFFFFFFFFFFFFFFFFFFFFFFFFF",
"FFFFFFFFFFFFFFFFFFFFFFFFFFFFFFAj6BMDeFFFFFFFFFFFFFFFFFFFFFFFFFFF",
"FFFFFFFFFFFFFFFFFFFFFFFFFFFFFFZj4SDy*FFFFFFFFFFFFFFFFFFFFFFFFFFF",
"FFFFFFFFFFFFFFFFFFFFFFFFFFFFFFuA9MFFFFFFFFFFFFFFFFFFFFFFFFFFFFFF",
"FFFFFFFFFFFFFFFFFFFFFFFFFFFFFFFt8=FFFFFFFFFFFFFFFFFFFFFFFFFFFFFF",
"FFFFFFFFFFFFFFFFFFFFFFFFFFFFFFFFFFFFFFFFFFFFFFFFFFFFFFFFFFFFFFFF",
"FFFFFFFFFFFFFFFFFFFFFFFFFFFFFFFFFFFFFFFFFFFFFFFFFFFFFFFFFFFFFFFF",
"FFFFFFFFFFFFFFFFFFFFFFFFFFFFFFFFFFFFFFFFFFFFFFFFFFFFFFFFFFFFFFFF",
"FFFFFFFFFFFFFFFFFFFFFFFFFFFFFFFFFFFFFFFFFFFFFFFFFFFFFFFFFFFFFFFF"
};
