/* XPM */
static char *result[] = {
/* columns rows colors chars-per-pixel */
"64 64 64 1 ",
"  c #010101",
". c #090909",
"X c gray11",
"o c #252525",
"O c #282728",
"+ c #2C2C2C",
"@ c #343434",
"# c #393838",
"$ c #454544",
"% c #4F4D4D",
"& c #545454",
"* c #575956",
"= c #5C5C5C",
"- c #5B635B",
"; c #646464",
": c #666B64",
"> c #6D6D6D",
", c #706F6F",
"< c #737373",
"1 c #777877",
"2 c #777878",
"3 c #7C7C7C",
"4 c #7F807F",
"5 c #80827F",
"6 c #848484",
"7 c #878888",
"8 c #8C8C8C",
"9 c #908F8F",
"0 c #939393",
"q c #989797",
"w c #9C9C9C",
"e c #A09F9F",
"r c #A09FA0",
"t c #A4A3A4",
"y c #A8A7A7",
"u c #ABABAB",
"i c #B0AFAF",
"p c #A9B3A9",
"a c #B4B3B3",
"s c #B4BCB5",
"d c #B7B7B8",
"f c #BBBBBB",
"g c #C0BEBF",
"h c #C0BFC0",
"j c #C3C3C3",
"k c #C8C6C6",
"l c #CCCBCB",
"z c #D0CDD0",
"x c #D3D3D3",
"c c #D7D7D8",
"v c #DBDBDC",
"b c #E0DFDF",
"n c #E0E8DF",
"m c #E5E4E4",
"M c #E8E5E6",
"N c #EBE5E8",
"B c #ECECEC",
"V c #F0EEEF",
"C c #F1EFF0",
"Z c #F4F4F4",
"A c #F7F7F8",
"S c #F9F7F8",
"D c #FFFEFF",
"F c None",
/* pixels */
"FFFFFFFFFFFFFFFFFFFFFFFFFFFFFFFFFFFFFFFFFFFFFFFFFFFFFFFFFFFFFFFF",
"FFFFFFFFFFFFFFFFFFFFFFFFFFFFFFFFFFFFFFFFFFFFFFFFFFFFFFFFFFFFFFFF",
"FFFFFFFFFFFFFFFFFFFFFFFFFFFF>>wjcckwFFFFFFFFFFFFFFFFFFFFFFFFFFFF",
"FFFFFFFFFFFFFFFFFFFFFFFFFFFF7MDDDDDDZFFFFFFFFFFFFFFFFFFFFFFFFFFF",
"FFFFFFFFFFFFFFFFFFFFFFFFFF=ZmCDDDDDDDDFFFFFFFFFFFFFFFFFFFFFFFFFF",
"FFFFFFFFFFFFFFFFFFFFFFFFFFMiSDDDDDDDDDDFFFFFFFFFFFFFFFFFFFFFFFFF",
"FFFFFFFFFFFFFFFFFFFFFFFFFN1yDDDDDDDDDDDcFFFFFFFFFFFFFFFFFFFFFFFF",
"FFFFFFFFFFFFFFFFFFFFFFFFle8DDDDDDDDDDDDDFFFFFFFFFFFFFFFFFFFFFFFF",
"FFFFFFFFFFFFFFFFFFFFFFF7c<DDDDDDDDDDDDDDdFFFFFFFFFFFFFFFFFFFFFFF",
"FFFFFFFFFFFFFFFFFFFFFFFjwgDDDDDDDDDDDDDZMFFFFFFFFFFFFFFFFFFFFFFF",
"FFFFFFFFFFFFFFFFFFFFFFFl3DDDDDDDDDDDDDDSD7FFFFFFFFFFFFFFFFFFFFFF",
"FFFFFFFFFFFFFFFFFFFFFFFVlDDDDDDDDDDDDDDSDtFFFFFFFFFFFFFFFFFFFFFF",
"FFFFFFFFFFFFFFFFFFFFFFjdlDDDDDDDDDDDDDDDCjFFFFFFFFFFFFFFFFFFFFFF",
"FFFFFFFFFFFFFFFFFFFFFFxwlDDDgmDDDDC,dDDDBmFFFFFFFFFFFFFFFFFFFFFF",
"FFFFFFFFFFFFFFFFFFFFFFmVDDDf.&ADDDw @BDDBA6FFFFFFFFFFFFFFFFFFFFF",
"FFFFFFFFFFFFFFFFFFFFFFAADDD3oojDDD>+oaDDZD9FFFFFFFFFFFFFFFFFFFFF",
"FFFFFFFFFFFFFFFFFFFFF8ZBDDD,+OuDDD=#owDDZZsFFFFFFSDaFFFFFFFFFFFF",
"FFFFFFFFFFFFFFFFFFFFF0CCDDD<OOdDDD&@oyDDDMZFFFFFDDDDFFFFFFFFFFFF",
"FFFFFFFFFFFFFFFFFFFFF8CDDDDf #CDDD< @mDDDND07FFBDDDDvFFFFFFFFFFF",
"FFFFFFFFFFFFFFdmjFFFFyMDDDDDrjDDDDv=aDDDDZZawFFDDSDDDFFFFFFFFFFF",
"FFFFFFFFFFFFFDDDDdFFq0MDDDDDDDDDDDDDDDDDDDBZ2>3DDZlSD8FFFFFFFFFF",
"FFFFFFFFFFFFDDDZDD;>xlDDDDDDDDDDDDDDDDDDDDDVvztDDD<jDlFFFFFFFFFF",
"FFFFFFFFFFFfDDDe7DmfDDDDDDDDDDDDDDDDDDDDDDDSZpDSDD7hDDFFFFFFFFFF",
"FFFFFFFFFFFBDMmcdDDDDDDDDDDDDDDD8jDDDDDDDDDDDxBDDDjcDBvFFFFFFFFF",
"FFFFFFFFFFFDDk7DavDDDDDDDDDDDDDD=jDDDDDDDDDDDmMDDc6tDvDFFFFFFFFF",
"FFFFFFFFFF9DDl6D3wDDDDDDDDDDDDDDDDDDDDDDDDDDDDDDD85wDmMDFFFFFFFF",
"FFFFFFFFFFyDDc6Dd6DDdmDDDDDDDDDDDDDDDDDDDDDDDdjDm0u6DDDyFFFFFFFF",
"FFFFFFFFFFvDBM6mM6SD;aDDDDDDDDDDDDDDDDDDDDDDD8tDl0h0StFFFFFFFFFF",
"FFFFFFFFFFDDMD6dD7lDlmDDDDDDDDDDDDDDDDDDDDDDDZSDu0v>&FFFFFFFFFFF",
"FFFFFFFFFFtyCDw0D8yDtcDDDDDDDDDDDDDDDDDDDDDDDalD9tc$:FFFFFFFFFFF",
"FFFFFFFFFF<$$w76Dt8D>kDDDDDDDDDDDDDDDDDDDDDVD3yD5sSyFFFFFFFFFFFF",
"FFFFFFFFFFFFFFFwDc6S3lDDDDDSDDDDDDDClSDDDDDda7uS8zzFFFFFFFFFFFFF",
"FFFFFFFFFFFFFFFFFr7m8lDDDDtjDDDDDDDm>ZDDDDDy08fB*FFFFFFFFFFFFFFF",
"FFFFFFFFFFFFFFFF&;&c0lDDDD3aDDDDDDDB4MDDDDDd0qzjFFFFFFFFFFFFFFFF",
"FFFFFFFFFFFFFFFFFn*i6lDDDD7fDDDDDDDZ3bDDDDDd8rcaFFFFFFFFFFFFFFFF",
"FFFFFFFFFFFFFFFFF71m3lDDDD7hDDDDDDDS3xDDDDDf80xDFFFFFFFFFFFFFFFF",
"FFFFFFFFFFFFFFFF%;BS3lDDDD7jDDDDcBDD1lDDDDDf0txFFFFFFFFFFFFFFFFF",
"FFFFFFFFFFFFFFFF-SSm3lDDDD6kDDDD;xDD3fDDDDDj10=FFFFFFFFFFFFFFFFF",
"FFFFFFFFFFFFFFFFFlDm7kDDDD3lDDDSumDD5dDDDDDj<=FFFFFFFFFFFFFFFFFF",
"FFFFFFFFFFFFFFFFF&kD6xDDDD6lDDDDDZDD6yDDDDDd6FFFFFFFFFFFFFFFFFFF",
"FFFFFFFFFFFFFFFFFF&7;vSDDD7lDmDmyADD7eDDDDDu0FFFFFFFFFFFFFFFFFFF",
"FFFFFFFFFFFFFFFFFFFX6xZDDS6cS6Az>DDD7eDCDDDtyFFFFFFFFFFFFFFFFFFF",
"FFFFFFFFFFFFFFFFFFFF>mmZDZ7vA7Sx6DDD9qSmBMAd<FFFFFFFFFFFFFFFFFFF",
"FFFFFFFFFFFFFFFFFFFF<DmmSZ7vCxDk6DDD00DmnmDfFFFFFFFFFFFFFFFFFFFF",
"FFFFFFFFFFFFFFFFFFFFdDmmBc7mv6Dk7DDDq9DmmmDtFFFFFFFFFFFFFFFFFFFF",
"FFFFFFFFFFFFFFFFFFFFFvDDDm7Mc3Dj7DDDw8DmmmDwFFFFFFFFFFFFFFFFFFFF",
"FFFFFFFFFFFFFFFFFFFFFFF8855Zc6Dh6DDDe6DmmmDFFFFFFFFFFFFFFFFFFFFF",
"FFFFFFFFFFFFFFFFFFFFFFF&p-;Dx6Dh7DDDy5DmZDtFFFFFFFFFFFFFFFFFFFFF",
"FFFFFFFFFFFFFFFFFFFFFFFFs;dDl6Dd7DDSMbSDlFFFFFFFFFFFFFFFFFFFFFFF",
"FFFFFFFFFFFFFFFFFFFFFFFF$hDBl6Dd7DDDhzkFFFFFFFFFFFFFFFFFFFFFFFFF",
"FFFFFFFFFFFFFFFFFFFFFFFFtDmBl6Da8SDDyFFFFFFFFFFFFFFFFFFFFFFFFFFF",
"FFFFFFFFFFFFFFFFFFFFFFFFFlZDc7Dp8SBDuFFFFFFFFFFFFFFFFFFFFFFFFFFF",
"FFFFFFFFFFFFFFFFFFFFFFFFFFF0w0Dd8AmDwFFFFFFFFFFFFFFFFFFFFFFFFFFF",
"FFFFFFFFFFFFFFFFFFFFFFFFFFFF=1Dd7ZmAyFFFFFFFFFFFFFFFFFFFFFFFFFFF",
"FFFFFFFFFFFFFFFFFFFFFFFFFFFFFFSf6BMDtFFFFFFFFFFFFFFFFFFFFFFFFFFF",
"FFFFFFFFFFFFFFFFFFFFFFFFFFFFFFZk3DDy&FFFFFFFFFFFFFFFFFFFFFFFFFFF",
"FFFFFFFFFFFFFFFFFFFFFFFFFFFFFFpZ8MFFFFFFFFFFFFFFFFFFFFFFFFFFFFFF",
"FFFFFFFFFFFFFFFFFFFFFFFFFFFFFFFt7=FFFFFFFFFFFFFFFFFFFFFFFFFFFFFF",
"FFFFFFFFFFFFFFFFFFFFFFFFFFFFFFFFFFFFFFFFFFFFFFFFFFFFFFFFFFFFFFFF",
"FFFFFFFFFFFFFFFFFFFFFFFFFFFFFFFFFFFFFFFFFFFFFFFFFFFFFFFFFFFFFFFF",
"FFFFFFFFFFFFFFFFFFFFFFFFFFFFFFFFFFFFFFFFFFFFFFFFFFFFFFFFFFFFFFFF",
"FFFFFFFFFFFFFFFFFFFFFFFFFFFFFFFFFFFFFFFFFFFFFFFFFFFFFFFFFFFFFFFF",
"FFFFFFFFFFFFFFFFFFFFFFFFFFFFFFFFFFFFFFFFFFFFFFFFFFFFFFFFFFFFFFFF",
"FFFFFFFFFFFFFFFFFFFFFFFFFFFFFFFFFFFFFFFFFFFFFFFFFFFFFFFFFFFFFFFF"
};
