/* XPM */
static char *result[] = {
/* columns rows colors chars-per-pixel */
"64 64 64 1 ",
"  c #010101",
". c #090909",
"X c gray11",
"o c #252525",
"O c #282728",
"+ c #2C2C2C",
"@ c #343434",
"# c #393838",
"$ c #454544",
"% c #4F4D4D",
"& c #545454",
"* c #575956",
"= c #5C5C5C",
"- c #5B635B",
"; c #646464",
": c #666B64",
"> c #6D6D6D",
", c #706F6F",
"< c #737373",
"1 c #777877",
"2 c #777878",
"3 c #7B7B7B",
"4 c #7F807F",
"5 c #80827F",
"6 c #848484",
"7 c #878888",
"8 c #8C8C8C",
"9 c #908F8F",
"0 c #949393",
"q c #989797",
"w c #9C9C9C",
"e c #A09F9F",
"r c #A09FA0",
"t c #A4A4A4",
"y c #A8A7A7",
"u c #ABABAB",
"i c #B0AFAF",
"p c #A9B3A9",
"a c #B4B3B4",
"s c #B4BCB5",
"d c #B7B7B8",
"f c #BBBBBB",
"g c #C0BEBF",
"h c #C0BFC0",
"j c #C4C4C4",
"k c #C8C6C6",
"l c #CCCBCB",
"z c #D0CDD0",
"x c #D3D3D3",
"c c #D7D7D8",
"v c #DBDBDC",
"b c #E0DFDF",
"n c #E0E8DF",
"m c #E5E4E4",
"M c #E8E5E6",
"N c #EBE5E8",
"B c #ECECEC",
"V c #F0EEEF",
"C c #F1EFF0",
"Z c #F4F4F4",
"A c #F7F7F8",
"S c #F9F7F8",
"D c #FFFEFF",
"F c None",
/* pixels */
"FFFFFFFFFFFFFFFFFFFFFFFFFFFFFFFFFFFFFFFFFFFFFFFFFFFFFFFFFFFFFFFF",
"FFFFFFFFFFFFFFFFFFFFFFFFFFFFFFFFFFFFFFFFFFFFFFFFFFFFFFFFFFFFFFFF",
"FFFFFFFFFFFFFFFFFFFFFFFFFFFFFFFFFFFFFFFFFFFFFFFFFFFFFFFFFFFFFFFF",
"FFFFFFFFFFFFFFFFFFFFFFFFFFFFFFFFFFFFFFFFFFFFFFFFFFFFFFFFFFFFFFFF",
"FFFFFFFFFFFFFFFFFFFFFFFFFFFF>>ejccjwFFFFFFFFFFFFFFFFFFFFFFFFFFFF",
"FFFFFFFFFFFFFFFFFFFFFFFFFFFF6MDDDDDDAFFFFFFFFFFFFFFFFFFFFFFFFFFF",
"FFFFFFFFFFFFFFFFFFFFFFFFFF=BBCDDDDDDDDFFFFFFFFFFFFFFFFFFFFFFFFFF",
"FFFFFFFFFFFFFFFFFFFFFFFFFFNaSDDDDDDDDDDFFFFFFFFFFFFFFFFFFFFFFFFF",
"FFFFFFFFFFFFFFFFFFFFFFFFFN<yDDDDDDDDDDDxFFFFFFFFFFFFFFFFFFFFFFFF",
"FFFFFFFFFFFFFFFFFFFFFFFFlr9DDDDDDDDDDDDDFFFFFFFFFFFFFFFFFFFFFFFF",
"FFFFFFFFFFFFFFFFFFFFFFF7x<DDDDDDDDDDDDDDaFFFFFFFFFFFFFFFFFFFFFFF",
"FFFFFFFFFFFFFFFFFFFFFFFjwhDDDDDDDDDDDDDABFFFFFFFFFFFFFFFFFFFFFFF",
"FFFFFFFFFFFFFFFFFFFFFFFl3DDDDDDDDDDDDDDAD6FFFFFFFFFFFFFFFFFFFFFF",
"FFFFFFFFFFFFFFFFFFFFFFFVzDDDDDDDDDDDDDDSStFFFFFFFFFFFFFFFFFFFFFF",
"FFFFFFFFFFFFFFFFFFFFFFgflDDDDDDDDDDDDDDDZjFFFFFFFFFFFFFFFFFFFFFF",
"FFFFFFFFFFFFFFFFFFFFFFxwlDDDjMDDDDC,aDDDBMFFFFFFFFFFFFFFFFFFFFFF",
"FFFFFFFFFFFFFFFFFFFFFFMCDDDf.&ADDDw @BDDBA6FFFFFFFFFFFFFFFFFFFFF",
"FFFFFFFFFFFFFFFFFFFFFFAADDD2oOjDDD>+OaDDCD0FFFFFDDaFFFFFFFFFFFFF",
"FFFFFFFFFFFFFFFFFFFFF9BZDDD,+OyDDD=#owDDAZaFFFFDDDDFFFFFFFFFFFFF",
"FFFFFFFFFFFFFFFFFFFFF0CBDDD1OOdDDD*#oyDDDMAFFFBDDDDvFFFFFFFFFFFF",
"FFFFFFFFFFFFFamhFFFFF8VDDDDf #BDDD< @mDDDMD06FDDSDDDFFFFFFFFFFFF",
"FFFFFFFFFFFFDDDDfFFFFyMDDDDDrhDDDDc=aDDDDZZawMDDAlSD8FFFFFFFFFFF",
"FFFFFFFFFFFDDDZDD;>6q0MDDDDDDDDDDDDDDDDDDDBZ2tDDD<jDzFFFFFFFFFFF",
"FFFFFFFFFFfDDDt6DMfdxzDDDDDDDDDDDDDDDDDDDDDBcDSDD7gDDFFFFFFFFFFF",
"FFFFFFFFFFBDBmcdDDDDDDDDDDDDDDDDDDDDDDDDDDDSZBDDDhxDBvFFFFFFFFFF",
"FFFFFFFFFFDDj6DacDDDDDDDDDDDDDDD8jDDDDDDDDDDDMDDc5yDvDFFFFFFFFFF",
"FFFFFFFFF8DDl6D3wDDDDDDDDDDDDDDD=yDDDDDDDDDDDDDD85wDmMDFFFFFFFFF",
"FFFFFFFFFyDDv6Dd6DDDDDDDDDDDDDDDDDDDDDDDDDDDDBDM0u6DDDyFFFFFFFFF",
"FFFFFFFFFvDBM6mB6SDDdnDDDDDDDDDDDDDDDDDDDDDDDMDl0fqDtFFFFFFFFFFF",
"FFFFFFFFFDDMA5dD7lDDkaDDDDDDDDDDDDDDDDDDDDDDDADu0b:&FFFFFFFFFFFF",
"FFFFFFFFFeyZDeqD8yDflbDDDDDDDDDDDDDDDDDDDDDDDlD9tc$:FFFFFFFFFFFF",
"FFFFFFFFF<$$e66Dt7DdkvDDDDDDDDDDDDDDDDDDDDDDDyD4aDyFFFFFFFFFFFFF",
"FFFFFFFFFFFFFFwDc6DdljDDDDDDDDDDDDDDDDDDDDDZDuA8lzFFFFFFFFFFFFFF",
"FFFFFFFFFFFFFFFFe8MdjlDDDDDSDDDDDDDClDDDDDDaafB=FFFFFFFFFFFFFFFF",
"FFFFFFFFFFFFFFF&;&cDklDDDDtjDDDDDDDb,CDDDDDu0zjFFFFFFFFFFFFFFFFF",
"FFFFFFFFFFFFFFFFn*iDklDDDD2aDDDDDDDB4MDDDDDa0caFFFFFFFFFFFFFFFFF",
"FFFFFFFFFFFFFFFF71mDklDDDD7fDDDDDDDZ3bDDDDDd7xDFFFFFFFFFFFFFFFFF",
"FFFFFFFFFFFFFFF%:BADklDDDD6jDDDDDDDD2xDDDDDf8xFFFFFFFFFFFFFFFFFF",
"FFFFFFFFFFFFFFF;ADbd3lDDDD6jDDDDxBDD2lDDDDDf0=FFFFFFFFFFFFFFFFFF",
"FFFFFFFFFFFFFFFFlDmd3lDDDD6kDDDD;xDD3fDDDDDj2FFFFFFFFFFFFFFFFFFF",
"FFFFFFFFFFFFFFFF*kDf6lDDDD6jDDDSuMDD5aDDDDDj<FFFFFFFFFFFFFFFFFFF",
"FFFFFFFFFFFFFFFFF&666xDDDD6lDDDDDADD6yDDDDDd6FFFFFFFFFFFFFFFFFFF",
"FFFFFFFFFFFFFFFFFFX&;vSDDD6lDMDMyADD6eDDDDDu0FFFFFFFFFFFFFFFFFFF",
"FFFFFFFFFFFFFFFFFFFF6xZDDS6cS6Sx>DDD7wDZDDDyyFFFFFFFFFFFFFFFFFFF",
"FFFFFFFFFFFFFFFFFFFF>mmADZ6vS7Sx5DDD8wDbBMAa<FFFFFFFFFFFFFFFFFFF",
"FFFFFFFFFFFFFFFFFFFF1DmmDA6vBxDj6DDD00DMbmDfFFFFFFFFFFFFFFFFFFFF",
"FFFFFFFFFFFFFFFFFFFFdDmvBc6mv6Dj6DDDw0DmmmDtFFFFFFFFFFFFFFFFFFFF",
"FFFFFFFFFFFFFFFFFFFFFvDDDM7Bv3Dj7DDDw7DmmmDwFFFFFFFFFFFFFFFFFFFF",
"FFFFFFFFFFFFFFFFFFFFFFF9866Zc6Dh6DDDw6DmmmDFFFFFFFFFFFFFFFFFFFFF",
"FFFFFFFFFFFFFFFFFFFFFFF&p-;Dx6Df7DDDy4DmZDyFFFFFFFFFFFFFFFFFFFFF",
"FFFFFFFFFFFFFFFFFFFFFFFFs;dDl6Dd7DDSmbDDkFFFFFFFFFFFFFFFFFFFFFFF",
"FFFFFFFFFFFFFFFFFFFFFFFF$fDBl6Dd7DDDhzjFFFFFFFFFFFFFFFFFFFFFFFFF",
"FFFFFFFFFFFFFFFFFFFFFFFFtDmBl6Da8SDDyFFFFFFFFFFFFFFFFFFFFFFFFFFF",
"FFFFFFFFFFFFFFFFFFFFFFFFFkZDv7Dp8SBDuFFFFFFFFFFFFFFFFFFFFFFFFFFF",
"FFFFFFFFFFFFFFFFFFFFFFFFFFF0q0Da7AmDqFFFFFFFFFFFFFFFFFFFFFFFFFFF",
"FFFFFFFFFFFFFFFFFFFFFFFFFFFF=1Dd7ZMAuFFFFFFFFFFFFFFFFFFFFFFFFFFF",
"FFFFFFFFFFFFFFFFFFFFFFFFFFFFFFSh6VMDeFFFFFFFFFFFFFFFFFFFFFFFFFFF",
"FFFFFFFFFFFFFFFFFFFFFFFFFFFFFFZj2DDy*FFFFFFFFFFFFFFFFFFFFFFFFFFF",
"FFFFFFFFFFFFFFFFFFFFFFFFFFFFFFuA9MFFFFFFFFFFFFFFFFFFFFFFFFFFFFFF",
"FFFFFFFFFFFFFFFFFFFFFFFFFFFFFFFt7=FFFFFFFFFFFFFFFFFFFFFFFFFFFFFF",
"FFFFFFFFFFFFFFFFFFFFFFFFFFFFFFFFFFFFFFFFFFFFFFFFFFFFFFFFFFFFFFFF",
"FFFFFFFFFFFFFFFFFFFFFFFFFFFFFFFFFFFFFFFFFFFFFFFFFFFFFFFFFFFFFFFF",
"FFFFFFFFFFFFFFFFFFFFFFFFFFFFFFFFFFFFFFFFFFFFFFFFFFFFFFFFFFFFFFFF",
"FFFFFFFFFFFFFFFFFFFFFFFFFFFFFFFFFFFFFFFFFFFFFFFFFFFFFFFFFFFFFFFF"
};
