/* XPM */
static char *result[] = {
/* columns rows colors chars-per-pixel */
"64 64 12 1 ",
"  c #140C1C",
". c #442434",
"X c #4E4A4E",
"o c #757161",
"O c #854C30",
"+ c #D27D2C",
"@ c #DAD45E",
"# c #6DC2CA",
"$ c #8595A1",
"% c #D2AA99",
"& c #DEEED6",
"* c None",
/* pixels */
"****************************************************************",
"****************************************************************",
"****************************************************************",
"****************************************************************",
"****************************************************************",
"****************************************************************",
"****************************************************************",
"****************************************************************",
"****************************************************************",
"****************************************************************",
"****************************************************************",
"****************************************************************",
"****************************************************************",
"****************************************************************",
"****************************************************************",
"****************************************************************",
"****************************************************************",
"****************************************************************",
"****************************************************************",
"********************    ****************    ********************",
"******************** ..                  .. ********************",
"******************** XX X... X..... X... XX ********************",
"******************** oo.OXXX.OXXXXX.OXXX.oo ********************",
"******************** $$X+OOOX+OOOOOX+OOOX$$ ********************",
"******************** %%O@+++O@+++++O@+++O%% ********************",
"******************** @@O&@@@O&@@@@@O&@@@O@@ ********************",
"******************** &&o&&&&o&&&&&&o&&&&o&& ********************",
"******************** @@O&@@@O&@@@@@O&@@@O@@ ********************",
"******************** %%O@%%%O@%%%%%O@%%%O%% ********************",
"******************** $$X%+++X%+++++X%+++X$$ ********************",
"******************** $$.+OOO.+OOOOO.+OOO.$$ ********************",
"******************** oo O... O..... O... #o ********************",
"******************** o$%$$$oX+&&&@+Xo$$$#&o ********************",
"******************** oXXXXXX.+XXXX+.XXXXXXX ********************",
"******************** XXXXXXX XO  OX XXXXXXX ********************",
"******************** ..      O    O      X. ********************",
"******************** $o .... OO  OO .... $o ********************",
"******************** oX .X.X XO  OX .X.X oX ********************",
"******************** oX .O.O .XOOX. .O.O oX ********************",
"******************** oX .O.OO      ..O.O oX ********************",
"******************** oX                  $X ********************",
"******************** oXo$$$$$$$$$$$$$$$$$%X ********************",
"******************** oXXXXXXXXXXXXXXXXXXXXX ********************",
"******************** XooooooooooooooooooooX ********************",
"********************                        ********************",
"****************************************************************",
"****************************************************************",
"****************************************************************",
"****************************************************************",
"****************************************************************",
"****************************************************************",
"****************************************************************",
"****************************************************************",
"****************************************************************",
"****************************************************************",
"****************************************************************",
"****************************************************************",
"****************************************************************",
"****************************************************************",
"****************************************************************",
"****************************************************************",
"****************************************************************",
"****************************************************************",
"****************************************************************"
};
