/* XPM */
static char *result[] = {
/* columns rows colors chars-per-pixel */
"64 64 12 1 ",
"  c #140C1C",
". c #442434",
"X c #4E4A4E",
"o c #757161",
"O c #854C30",
"+ c #D27D2C",
"@ c #DAD45E",
"# c #6DC2CA",
"$ c #8595A1",
"% c #D2AA99",
"& c #DEEED6",
"* c None",
/* pixels */
"****************************************************************",
"****************************************************************",
"****************************************************************",
"****************************************************************",
"****************************************************************",
"****************************************************************",
"****************************************************************",
"****************************************************************",
"****************************************************************",
"****************************************************************",
"****************************************************************",
"****************************************************************",
"****************************************************************",
"****************************************************************",
"****************************************************************",
"****************************************************************",
"****************************************************************",
"****************************************************************",
"****************************************************************",
"********************    ****************    ********************",
"******************** ..                  .. ********************",
"******************** XX X... X..... X... XX ********************",
"******************** $$X+OOOX+OOOOOX+OOOX$$ ********************",
"******************** %%O@+++O@+++++O@+++O%% ********************",
"******************** @@O&@@@O&@@@@@O&@@@O@@ ********************",
"******************** %%X%+++X%+++++X%+++X%% ********************",
"******************** $$.+OOO.+OOOOO.+OOO.$$ ********************",
"******************** %$ O...XO&&&@OXO... #$ ********************",
"******************** &%$$$$o.+XXXX+.o$$$#&$ ********************",
"******************** oXXXXXX XO  OX XXXXXXX ********************",
"******************** XXXXXXX O    O XXXXXXX ********************",
"********************         OO  OO         ********************",
"******************** ..      XO  OX      .. ********************",
"******************** ..      .XOOX.      .. ********************",
"******************** XXXXXXXX      XXXXXXXX ********************",
"******************** ..                  .. ********************",
"******************** $o ................ $o ********************",
"******************** oX .X.X.X.X.X.X.X.X oX ********************",
"******************** oX .O.O.O.O.O.O.O.O oX ********************",
"******************** oX .O.O.O.O.O.O.O.O oX ********************",
"******************** oX                  $X ********************",
"******************** oXo$$$$$$$$$$$$$$$$$%X ********************",
"******************** oXXXXXXXXXXXXXXXXXXXXX ********************",
"******************** XooooooooooooooooooooX ********************",
"********************                        ********************",
"****************************************************************",
"****************************************************************",
"****************************************************************",
"****************************************************************",
"****************************************************************",
"****************************************************************",
"****************************************************************",
"****************************************************************",
"****************************************************************",
"****************************************************************",
"****************************************************************",
"****************************************************************",
"****************************************************************",
"****************************************************************",
"****************************************************************",
"****************************************************************",
"****************************************************************",
"****************************************************************",
"****************************************************************"
};
