/* XPM */
static char *result[] = {
/* columns rows colors chars-per-pixel */
"64 64 12 1 ",
"  c #140C1C",
". c #442434",
"X c #346524",
"o c #30346D",
"O c #4E4A4E",
"+ c #757161",
"@ c #854C30",
"# c #D27D2C",
"$ c #DAD45E",
"% c #D2AA99",
"& c #DEEED6",
"* c None",
/* pixels */
"****************************************************************",
"****************************************************************",
"****************************************************************",
"****************************************************************",
"****************************************************************",
"****************************************************************",
"****************************************************************",
"****************************************************************",
"****************************************************************",
"****************************************************************",
"****************************************************************",
"****************************************************************",
"****************************************************************",
"****************************************************************",
"****************************************************************",
"****************************************************************",
"********************************......**************************",
"*******************************.%&&$$#.*************************",
"*************************......%&@@+#$#.************************",
"************************.%&&$$.&@+$#$#$.************************",
"***********************.%&@@+#.&@#&#$#$ ************************",
"***********************.&@+$#$.$#$&&$%$ ************************",
"***********************.&@#&#$ #$#@@#&# ************************",
"***********************.$#$&&$ o#$$&&#o ************************",
"*********************** #$#@@#& OX@@XO *************************",
"*********************** o#$$&&#o      ....**********************",
"************************ OX@@XO &#$#$ &$$#.*********************",
"*******************......      $&&$%$ @+#$#.********************",
"******************.%&&$$.&@+ #$#@@#&# $#$#$.********************",
"*****************.%&@@+#.&@. o#$$&&#o &#$#$ ********************",
"*****************.&@+$#$.$#.& OX@@XO o&&$%$ ********************",
"*****************.&@#&#$ #$.&o      o#@@#&# ********************",
"*****************.$#$&&$ o#.$#o....o#$$&&#o ********************",
"***************** #$#@@#& O #$#@@#& OX@@XO *********************",
"***************** o#$$&&#o  o#$$&&#o      ..********************",
"*****************. OX@@XO &# OX@@XO &#$#$ $#.*******************",
"***********......%&      $&&$      $&&$%$ #$#.******************",
"**********.%&&$$.&@+.% #$#@@#&#  #$#@@#&# $#$.******************",
"*********.%&@@+#.&@.%& o#$$&&#o  o#$$&&#o $#$ ******************",
"*********.&@+$#$.$#.&@+ OX@@XO o+ OX@@XO o$%$ ******************",
"*********.&@#&#$ #$.&@#o      o@#o      o@#&# ******************",
"*********.$#$&&$ o#.$#$&o....o$#$&o....o$&&#o ******************",
"********* #$#@@#& O #$#@@#& O #$#@@#& OX@@XO *******************",
"********* o#$$&&#o  o#$$&&#o  o#$$&&#o      ********************",
"********** OX@@XO &# OX@@XO &# OX@@XO &#$#$ ********************",
"***********      $&&$      $&&$      $&&$%$ ********************",
"************** #$#@@#&#  #$#@@#&#  #$#@@#&# ********************",
"************** o#$$&&#o  o#$$&&#o  o#$$&&#o ********************",
"*************** OX@@XO o* OX@@XO o* OX@@XO o********************",
"***************o      o**o      o**o      o*********************",
"****************o....o****o....o****o....o**********************",
"****************************************************************",
"****************************************************************",
"****************************************************************",
"****************************************************************",
"****************************************************************",
"****************************************************************",
"****************************************************************",
"****************************************************************",
"****************************************************************",
"****************************************************************",
"****************************************************************",
"****************************************************************",
"****************************************************************"
};
