/* XPM */
static char *result[] = {
/* columns rows colors chars-per-pixel */
"64 64 7 1 ",
"  c #140C1C",
". c #442434",
"X c #4E4A4E",
"o c #757161",
"O c #8595A1",
"+ c #D2AA99",
"@ c #DEEED6",
/* pixels */
" .............................          .                       ",
"XOOOOOOOoooooooooooooooooXoooXX .XXX..XXXXXXX........XX.......  ",
"XOOoooOOoXXooooXXXXXoXXXXXXooXX XX.....XX..........  ..  ....   ",
"XXoooooooXooXoXXooXXoXXooooXXX. X.XX. XXX..........  ......     ",
"XooooooooXXXooXXXoX.XXooXooXoX. ..XXX.XXXX..XX.  .  ....... ..  ",
"XOOoXXoooXXoooXXXXXXXXoX.XXXooX .XXXXXXXXX.XXX..X.  . ..  ....  ",
"XOoooooooXXoooXXXXXXoXXoooXoooX XoXX..XXXX.X.. .X. ..   .  ...  ",
"XOoXXoooXXooXooXXXXoooXXXoXoooX XoXX.XXXX.XX.X....              ",
"XOooXOoooXXXXXoXXXooXXXXXXoXooX XoXXXXXoXXXXXXXX.               ",
"oOooXOOooXooX.XXXXXXXXXXooooXoX XoXXXXXoXXXXX.X....       ..    ",
"XOoooOOooXoooXXXXXXXXXXXXXXooXX XXXXXooooXX...X. ..     .    .  ",
"XOOOooooXXXXoooX..XXXXXXXXXXXXX XXooXXXXoX..XXoX             .. ",
"XOOOooXXoXXXoXXXX.XXXXXXXXXoXXX XXooXoXoOX.XoXX. .X.      ..... ",
"XOOOooooooXoooXXXXXXXXXoXXooXXX XXXooooooX.XX...XXX ..   ...... ",
"XOOOOooooXXXooooX.XXXXXXXXXXXXX XXXoooXXX. ... ....    .....X.. ",
"XooOOOoXoXooXXXX..XXoXX..XooXXX XXXooXX.XX   ...  .   ...   .   ",
"XooOOOoXooOOoXX..XXXXoXXX.XXXXX XXXooXo.XX   .       ....  .... ",
"XOOOOoXoooooooX.oooXXXXooX.XoX  XooooooX.....      .       .... ",
"XOOOooXoooXXooXXoooXXXXXXXXXoX  XoXooXXXX.......   ..     ..... ",
"XOOOoXXoooXXoXXXXooXX..XXXoXoX  .oooX  .oX ... ..... .......... ",
"XoOoooXoXXXXXXXXXXXXXXXXXXXXX.   XXX.X.  . ..... ..  . ........ ",
"XOOoooooXXoXXXXXXXXXXXXXXoXX.   XX. .XXX   .X... .  . ....... . ",
"XOOOooXooXooooXXXXXXXX.XXXXX .X XX.X  XX  .XXX.  ... .....X..   ",
"XOOooooooXXXooXXoXXXXXXXXX.  XX XXXoX  XX. .XX.  ... . ...X.    ",
"XooooooooXXXXoXXXXoXXXXXX. .XoX XX XX.. ...X..   ..X.... ..  .  ",
"XoooooooXXXXXoXXXXoXXXXX  .oXoX XX ...XX...X.... ..... ...  .X. ",
"XoooooOoXXoooooo.XXXXXX .XXXXXX XX.XX.oXXXX.X... .XXX.    XXX.. ",
"XOoooooOXXXoooXoXXooXX .XXXoXX. XXoXX.oXXXXX..XX.XX..  . .oX... ",
"XOOoooooXXXXooXoXXoXX. ooX.XoXX .oooX.XXXXXXXXX...    ..XXXXXX. ",
"XoooOOOooXXooOooXooX. XoXX.XoXX  oXXXXXXXXXX.XX..  ..X. ...XXX  ",
"XooooooooooooooXXXX. .XoXX.XXX.  XXXXXXXXXX...XXX.......    .   ",
" .                               ..                             ",
"  .    ..........    .....        ..    ...       ..... ...  .  ",
"OOoooOOooooooOoOOooooooooXXX.   .XXXXXXXoXXXXXXXXXXXoooXXXXXXXX ",
"+OXXoOOXXXXXooXOOooOXXXXXXooX.  XXXXX.XooXXX.XXXXXXXXXoo...XX.. ",
"o.XooXoXXXooooooooXoXoXooXooXX  .XXXX.XXXXXXXXXXXoX.XXooooX ..X ",
"..ooXXooXXoO@OoooXXXXooooXXXXX  .XXXXXXXXXXXXXXXXX..XXoXXXoXXX. ",
"XooXXXXXXXo@ooXooXXoXooXXXXXX.  .XoXXXXXXXXooXXXXX..XXoX.XooOOX ",
"OoXXXooXoXoOoX.ooXXoXooXXXXXX.  .ooX..XoXXXoXX.XXX.XXXXXXXXoXoo ",
"OoXXXooXX.ooX.XoooXXXXoooXoXX.  .XXX.XXoXXXXXX..XXXXXXXXXXXXXXX ",
"OoXXXXXXXoooooooooXooXoooXX.X.  XoXXXXXXXXoXXXXXXXXX...XXoXXXXX ",
"OX..XXXXXXooXXXooXXooXXXooXXXX  XoXXXXXoXXXooXXXXX.XX..XXoOoXXX ",
"oX..Xo.XXXXOoXXoXXXXXXXXooXXX.  .XXXXoooooXXoooXXXXXXX..XXoXXoX ",
"XXXXX. XX.XooXXXXXXXooXXXoXXXX  .XXXXXXXooXXoOoXXXXXXX XXXX.XoX ",
"ooX.XXXX.XXXXXXXXXXoXX.XXooXXX  .XoXXoXooXXXooXXX.XoX...XXXoooX ",
"Ooo.XXXXXXXXXX.XXoXoXX.XXOoXXX  .XXXooXooXXXXXXXXXXoXXXXXXXoooX ",
"oXoXXX..XXoXX.XoXoXX..XoooXoX.  XXXXXXXXXXX.ooXoX.XooXooXXXoooo ",
"XXXXoOoXXXX XXoXXXXXXXooXXoXX.  .XXXXXXXXXXXXXXXXXXooXXXXXXoooo ",
" .XXOXX.XXXXXXXXXXXoXXoXXXXXXX  .XXoXXXXXXXXXXXXXXXXXXXXXXXoooo ",
" ...oXX.X..XXXX...XXoooXXXXXX.  .XXXXXXXXXXXXXXXXXXXXX.XX.XXXXX ",
"XXXXX..XX.XoXXX...XXXXXXXo.XX.  XoXXX.XXoXXXoXXXXXXXXXXX.XXoooX ",
"oXX.XXXoXXooX.XXXXX..XXXX. XX.  .XXoX..XoXXoooXXXXXXXXXXXXooooX ",
"oXX...XX.XXX....XX..XXoXXXXXX.  .XXXXXXXXXXXooXXXXXXXXXXXooXooX ",
"OXX..XXXXXXX.o..XXXXXXX XXXX..  .XX...XXX.XXXXXXXXXXXXoXXooXXXX ",
"OXXXXXXOoXXXX. XX..XXXXXXXX...  .XXXXX.XXXXXXXXXXXXXXXXXooXXXXX ",
"oXXoXXXooXXXX..XX...XXXXXXX...  XXXXooXXX..oooXXXXoX.XXXXXXX... ",
"oXXX.XXXXXX.......XXX. .XXX...  XXXXXXXXXXXXXoXXXXoXXXooXXXXXX. ",
"o.XXXXXXX.XXXXXXX.XXX XXoXXXX.  XXXXXXX..XXXXoXXXXXXXXXXXX.XXX. ",
"O.XXXXXXX.XX .XXXXXXX.XX+XXX..  XXXXXXX.XXXooXXXXXXXoX.XXXXXXX. ",
"oXX..XXX. XX.XoX..XXXXo+oXXX..  XXXXXXXXXXXXoXooXXXXoXXXX.XXXX. ",
"oXX..XX .o..XooX..XXoXXXXX.     XooXoXXX..XXXXooXXXoXX.XX..XXXX ",
"XXXXXX  OX. XXX..XXXX.XXX. XOo  XXXXXoXXX.XoXoooXXXoX..XX..XXX. ",
" .XX.  oX.  .XXX....XXX.  XoX.  .XXXXXXXXXXoooXXXXXXXXXXX..XXX. ",
"                                                                "
};
