/* XPM */
static char *result[] = {
/* columns rows colors chars-per-pixel */
"64 64 6 1 ",
"  c #140C1C",
". c #442434",
"X c #4E4A4E",
"o c #757161",
"O c #8595A1",
"+ c #D2AA99",
/* pixels */
"                                 .X...XX........ ..........     ",
" ..  XOOoXX..XXooooooX..XooooX. XoOOooOOooooooooXooOOooXXXXoXXX ",
" OX.oOOOOoOoXXoOooooOOOOO+ooOOo XooOXoooooXXooXXXooXooXXXXXoXXX ",
" X .OoXooXoOOoXooOoXooO+O+ooOXX XOooXXXooXXXoo..oXXXooXXXoXXoXX ",
" X oOooooXXooOooXoXXooOoXOOoOXX XoooXXXooXXXooXooXXXXXoXXXXXXXX ",
"XoXOooOoooXooooOOooXooOXXXXoOOo XXXXXXXXXXXooXXXXXXXXXXXXXXXXoX ",
"XXoOooooooXoXoXoooooooooooOOO+o XoXXXXoXXXXoXXXXXXXXXXXXXXXXXoX ",
" XOooooooXooXooXXoooooX.XooOOoX XooXXooXXXXoXooXXXoXXXXXXXXXXoX ",
" OOooOOoooOoXXoXXXoXXooXXXXoOoX XooXXoXXXXXoXooXXXooXXXXXXXXXXX ",
"XOoooOOoooooXXXXXXXXXXXoXoXXXoX XOoXXXXXXXoXoXXXoXoXXXXXXXooXo. ",
"XOoooOooooXXXXXXXXXXXXXXXooX..X XOoXXooXooX.oXXXoXoooXXXXoooooX ",
".OOOOoXoXXXXXXooXXXXoXXXXXooXXX XooXXXoooX.XooXoXXXooXXXXXooooX ",
"X++OOX.oXXXXXXXXXXXXXXXXXXXoXXX XXoXXXXoXXXXoooXXXXoXXXXXXoooo. ",
"X+OOOXoooXXoXXXXXXXXXXXoXXoXXXX XXXoooXXX.XXXXXXXXooXXooXXXooX  ",
"XOoOoXooXXXooXXXXXXXXXXXXXXXoXX XooOooXX..XXXXXXXXXXXXooXooooX  ",
"XooOOooXXXXXXXXXXXXXXX..XXXXXXX XXoOooX  XXXXXXXXXoXoXoXXooooX  ",
"XoooooXXXXooXX..XXXXXX.XXXXXXoX XXXooXX.XXXXXXXXXXoXoXoXooXoo.. ",
"XOOOooXXooXXXXXXXXXXXX.XXXXXXo. XoXXoX.XoXXXX.XXXXXXXoXXoXXXo.. ",
"XoOoooXoooXXXXXXXXXXXX.XXXXXoX  XoXXX.XXXXXXX.XXXXXXXXXXXXXXo.  ",
"XoooooXooXX.XXXXXXXXX..X..XXo.  XoXXX.XXXXXooX...XXXXXXXXoXXX . ",
"XooXooooXXXXXXXX.XXX...X...XX . .XoXXXXXXXXXXXXXXXXXXXXXXXoX. X ",
"XooooXooX.XXXX..X.X.XXX...XX..X .XXXXXXXX.XX...XXXXXXXXXoooX .  ",
"XooOooXoXXXXXX.XX...XX..X X. XX .XXXXXXXXXXX....XXXXXXXXoXXX    ",
"XOoOoooooXXXXXXXXXXX.X...  .XoX XXXooXXXXXXXX..XXoXXXX...XXXX.  ",
".ooOoXoooXXXXXX.XXXX.X..XXXXXoX XXXoXXXXXXXXXXXXX..XXXXXXXXXXX  ",
" ooOooooXXXXXXXXXXXXXX..XoXXXoX .XXXXXXXXoXXXXX...XXXXXOOX..XX. ",
" oooooOoXXXXXXoX.XXX. .X .XXXXX XXXXoXXXXXXXooXX..XXXXXXXoXXXXX ",
" OOoooOOoXXXoXXoXXXX .XXX..X. . XXXXoXXXXXXXXXXXX.XoXXXXXXXXXX. ",
" OOooooOXXXXXoXoXXX .X.XXX.  .. .oooXXXX.XXX.XX.  XXXXXXXXXXXX  ",
" ooooooooXXXXooXXX..XXXXXXX. .. .XXXXXXXX.X.     ..XXXXXXXXXX.  ",
" XoXXXXXoXXXXooXX   ..XXXXX  X. .XXXXXXXX.. XXXX.. .XXXXXXXX.   ",
"                                                                ",
"         ..       . .......  .   .............       .          ",
".XXXXXXXXXXXXXXXXXXXoooooooXXXX  oXXXXXooXXXXXXXXXXXXoXXXXXXXX. ",
".X....XXXX..XXXX.XX.XXoXXXXXXXX  XXXXXXoXX.XXXXXXXX..XX..XXXX.. ",
"...X. .XX...XX..XX..XXooooXXXXX  XXXX.XooXXXXX.X.X...XXXXXX.X.. ",
" .XX..XXXX.XXXX..X .XXooXXXoooX  XXoXXoooXXXoXX..X..XXXXXXX.XX. ",
" .X....XXXXooX..X...XXoX..oOOOo  XXooXooooXooXX.XX....XX..XXXX. ",
" XX...XX.XXXXX XXXXXXXXXooXooOo  ooXXXooXoXoXX.XXX..X...X..X.X. ",
" X.....X..XX.X.X.XXXXXXXooXXXXX  ooXXXXoXXXXXXXXXX............. ",
" X.....XXXXXX..XXXXX.X.XoooXXXX  ooooooOoXXXoXXXX ............. ",
".X...XXXXXXXXXXXXX.XXX.XXoOoXoX  oooXooOoXXXXXXX.X........XX... ",
" ....XXXXXXXXoXXXXXXXX..XXoXXoX  oXXXoOOooXXXXoX..X... ........ ",
" .XX...XXX..ooXXXXXXXX.XXXXXXoo  XooXXooOoXXooOo.....  .. ...XX ",
" .XX.X.XXX.XXXXXX..XX...XXXoooo  oOooooOOoXooXoX..XX.. ...XXXXX ",
" .XXXXXXX...XX.XX..XX.XXXXooooo  XoOOooOOXXXXX..XXX.......XXXX. ",
".X.XXXXXX...XX.X.  ....XXXXXooo  XXoooXoXX.....XXXX . .XXXXXoX. ",
" ...X.......XX.X..oooXXXoXXoooo  XXXX.....   ..X. . ..XXX...X.. ",
" ..XX.............XXXXXXXXooOOo  ooOooo..X.. ... ....XX... .... ",
" .XX.XXXX............X....XXXXo  oooooooXXXXX..........       . ",
".X... ..X.....X....XXXXX..XoooX  oXooXXoX..X..XX...X.....XXXXXX ",
" X.XX .XX..XXXX.X.XXXXXXXXXoooX  ooXX  .oX .....XXXX.....XXXXXX ",
" ......X..XXXX.XXXXX.XXXXooXoXX  XXX...  . .X..X... ....XXXX.X. ",
" ... .... .. ...XX..XXXXXoXXXXX  XX  ..X   XXX.... ....XXXXXX.. ",
" ...X. ......XX.XX...XXXoXXXXXX  X X...X  .XXX. .X......XXXX. . ",
"...XXX..X .XXXXXXXX..XXXXXXX. .  X.oX  XX. .XX....X......XXX    ",
" .......X...XXX.XXXXXXXX.XXX.X.  . X........ ......X...X.XX. X. ",
" ......  X..XXX....XXX.XXX.XXX.  X ...X..XX..... ......X..  Xo. ",
" .....X .X.XXX.X...XX.....XXXX.  ..XX.X.XX..XX.. .XXX.    XXXX. ",
" ..........XXXXXX.XXX..X..XXXX.  XXXX.XXXX..X.XX.XX..  . Xoo... ",
"..X.X... .....XXX.XX...X...XXXX  ooXX.XXX..X.XXX..    .XXXXXXX. ",
".....XX.. .XXXXXX.XXX  .. .XXX.  XXXXXXXXXXX..X.X. .X......XXX  ",
" ..........XXXXXXX.XX......XX..  XXXXXXXXXX....XX........   .   ",
"                                                                "
};
