/* XPM */
static char *result[] = {
/* columns rows colors chars-per-pixel */
"64 64 5 1 ",
"  c #140C1C",
". c #442434",
"X c #4E4A4E",
"o c #757161",
"O c #8595A1",
/* pixels */
" ......    ..   ....     .....                     .. .X.... .. ",
".XoXooooXXXoXXoXXoooooXXooooooX  XooooooooXoooX..XOOOOOoooOOooX ",
".XXXXXXoXXXXXXXXXXXXoooXoooooXX .OOOooOOooooOoooXooooooXXXooooX ",
"..XXXXXXXXXoXXXXXoXXooXXOOoXoX. XXXoXXXooXXXooXXoooooXoooOooooX ",
"..XXXXXX.XXXXXXXXXXXXoX.oooXoXX XXXoXXXooXXXoooXooXXXXooXoXXooX ",
".XXXXXXX.XXXXXXooXXXXXX XXXXooX X.XX.XXXXXXooooXXXX.XXooXooXooX ",
".XXXXXXXXX.XXXXXXXXXoXX.ooXXooX XXXXXXoXXXXoooXXXXXXXXXXoXXoooX ",
".XX.XXoXXXXX...XXXXXooX.oooXooX XoXXXooXXXXoooXXXXoXXXXoooXXooX ",
".XXXXoXXXXXXXXX.XXoXXX..oXoooXX XoXXXoXXXXooooXXXoooXXXooXXXXoX ",
".oXXXXXX..XXX.X.XXXXXX XoooOoXX XOXXXXXXXXoooXXXoXooXooXXoooooX ",
".XXXXXXXX.XXo...X.XXXX XoooooXX XoXXXXXXoXXXX.XooXooooXooooXoOX ",
".oXXXX.XXXXXXXXXXXXXX. oX.ooXoX XoXXXXXXoXXXo.XoXXoooXXXoXXXoOo ",
" XXXX..XXXXXXXXXXXXXX. oXXXoXXX XooXXXXoXXXXoXooXXoOoXXXXXXoooX ",
" .ooXXXXX.XooXXXXXXXX..oXXXXXoX XoXooXXXXXXXXoooXooooXoooXXooXX ",
" XooXXXXX.XXXXXXXXXXX..oXXXXooX XoXooXXooXXXXoooXXoXXXooXXooooo ",
" XoooXXXXXXXXXXXXXXXX.XXXXooooX XXXooXoXooXXoooXXXoXoXooXoOOooo ",
" XXoXXXXXooXXXXXXXXXXXXXXXXXoXX XXXoXXXXXoXXoXXXXXXXooooXoooooo ",
" oXoXXXXXXXXoXXXXXXXXX..X.XooXX XooXooooooX.X.XoXXoooooXXoooooX ",
".oooXXXXXXXXoXXXXXXXXX.XX.XooXX XoX.XXXXoXXXXXXXXXXXXXoXooooooX ",
".oooXX.XX.XXXXXXXXXXX  XX.oXooX XoXXXX.XXXXoooXXXXXXXXXXooooooX ",
".oooXXXoX.XXXXXXXXXXX..oXXXXooX XXXXX.XoXXXooXXXXoXXXXXoooooooX ",
".ooXXXXoo.XXXXXXXXXXX..oXXXXXXX .XoXX.XoXXXXXXXXXXXXoooooOooooX ",
".oooXXXXX.XXXXXXXXXXX.XoXXoXXXX XXooXXXXXXoXXXXXXXXXXoooooooXXX ",
".oXoXXXoo.XoXXXXXXXXX.XoXXXoXXX XoooXXXXXXXoXXXXoOoXXXXXooXoXXX ",
" XooXXoXXXXXXXXXXXXXXXoXXXXXXoX XoXoXXXoooXooXXXooooXoooXoXX..  ",
" oXoXX     .XXXXXX.XXXXXXXXXooX XXXoXXoooooooooXXXXooooooXX XoX ",
".oXoX XooXXX......XXXXXXXXXXoXX XXXXoooooXXooOoXXXoooooooXX.ooX ",
".XXX .oooXoooXXoXXoXXXooooXXooX .oXXoXoXXXXoooooXXoOoXoooX.XooX ",
"    XoooXXXXoXXooXoXXXXooXXXXoX .ooXoooXXXXXXXooXXXooooXX .OOoX ",
" XXoOooooXXXooX.XXXXXXXXooXoooX .oooooXXXXXoXXXXXXoOooX .XooooX ",
".XXooooooXXXXooX.XXX..XXXXXoXX.  XXXXX.XXXXXXXXXXXoOo. XooooooX ",
"                                                                ",
" ......... ...................                      ...         ",
"XOOooooooXXooooooooooooooooooXX .XXXX.XXXX..X....XXXXXXXXXX..XX ",
"XOoXXXooXXXXXXXooXooXXXXXXXoXXX .X.XX..XX..XX...XX..XX.XXXXXXXX ",
"XoooXXooXXXXXoXXooXXXXooooXXoXX .X.XXX....XXX.X.XX..X..XXXXXXXX ",
"XoooXXXooXXoooooXoXXoXoooooXXXX ..XXXXXX.XXXXX..XX....XX.XXXXXX ",
"XooXXXXoXXXoooooooXXoXooXooXXoX .XXXXXXXXXXXX.XXXX....XX..XXoX. ",
"XooXX.XoXXXXXoooooXXoXooooXoXoX .XXXXXXX.XXXX..XXX.X..XXXXXXXoo ",
"XoXXXXXXXXXXXooooooooooXooXoXXX .XX.XXXX..XX.....XX....XXX.XXXX ",
"XooX.XXXXXooXoooooooXoXoXXooXXX .XX.XXXXX.XX.....X. .....XXXXXX ",
"XoXX.XXXXXXooXoXoXooXXXoooooXXX .XXXXXXXX.XX..X..........XXXXoX ",
"XoX..XXooXXoOoXXoXooooXooooooXX .XXXXXXXXXX..XX...........XXXoX ",
"XXXXXXXXXXXXooXXXXoooXXXooOoooX .XoXXXXXXX..XXXX..XX......XXXoX ",
"XooXX..XXXXXoooXXXXooXXXooOooXX .XoXXXXXoX..XXXXXXXX......XXXXX ",
"XoooXXXXXXXXXXoooooXXXXXooOooXX .XXXXXXXX...XX.............XXXX ",
"XoXooXooXXXXXXooXXooXXXoooOooXX .XXXXXXX...XXX....XXX.X.XXXXXXX ",
"XoXoOXXXXXXXXXXXXoooooooOOOOooX .XXXoXX..XXXXX....XXX...XXXXXoX ",
"XoXoOoXXXXXXXXXXXXXoOOOoooooooX XXXooXX...XX.X....X.....XXXXXoX ",
"XoooooXXXXXXXXXXXXXooOOoooooooX XooooXXX.XX.XX.X........XX.XXXX ",
"XoXoXXXXXXXXXXXXXXXXXoooooooooX XooXoXXXXX.XXXXXX.XX..XX..XXXXX ",
"XoXX..XXXXXoXXXXXooXXXXoooOoooX XoXXoXXXXXXXXXXXXXXX XXXXXXXooX ",
"XXXXX..oXXXXXX.XoooXXXooooooooX .XXXXXXXXXXXXX.XX.X..XXXXoXoXoX ",
"XoXXXXXoXXXXXX.XXXXXXoOooOooXXX .XXXXXXXX..XXX...XX .X..ooooXXX ",
"XooXooXoXXXXXXXXXX..XoooOoooXXX XXXXXX.XX.XXXXX.XX..X. .XXXXXXX ",
"XoooOoooX.XXX.XXXXXXXoXoOoooXXX XXXoXX.XX..XXXXXXXXX...XXXXX..X ",
"XoXXoooXXXXXXXXXXXXXXooooooXX.. XXXoXXoXX....XXXXXX.XXXXXXXXX.. ",
"XXXXXoXXXXXXXXoXXXXXoOOooooXXX. XXXXXXXX.XXXXoXXXXXXXXXXXX.XXXX ",
"XXXXXoXXXXXXXXooXXXXooXoXXoXXXX XXXXXoXXX XXXXoXXXXXXXXXXXXXXXX ",
"XoXXXXoXXXXXXXoOXXXXoXooXXXooXX XoXXXoXX.XoXXoooXoXXXXXoXXXXXXX ",
"XXoX.XoXX.XXXXXoXXXooXooXXXoXoX XOoXXXXX.XXXXooOoXoooXXXXXXXXoX ",
"XOooXXX....XXXXXX.XoXXooXoXooOX XooXoXXXoXXoXoOOOooooXoXXXXoooX ",
"XOooXXXXXX.XXXXXXXXXoXooooooOoX XoX.XXoooXXooXoXoooooXooXXXoooX ",
"                            .          .                        "
};
