/* XPM */
static char *result[] = {
/* columns rows colors chars-per-pixel */
"64 64 64 1 ",
"  c #010101",
". c #090909",
"X c gray11",
"o c #252525",
"O c #282728",
"+ c #2C2C2C",
"@ c #343434",
"# c #393838",
"$ c #454544",
"% c #4F4D4D",
"& c #545454",
"* c #575956",
"= c #5C5C5C",
"- c #5B635B",
"; c #646464",
": c #666B64",
"> c #6D6D6D",
", c #706F6F",
"< c #737373",
"1 c #777877",
"2 c #777878",
"3 c #7C7C7C",
"4 c #7F807F",
"5 c #80827F",
"6 c #848484",
"7 c #878888",
"8 c #8C8C8C",
"9 c #908F8F",
"0 c #939393",
"q c #989797",
"w c #9C9C9C",
"e c #A09F9F",
"r c #A09FA0",
"t c #A4A3A4",
"y c #A8A7A7",
"u c #ABABAB",
"i c #B0AFAF",
"p c #A9B3A9",
"a c #B4B3B3",
"s c #B4BCB5",
"d c #B7B7B8",
"f c #BBBBBB",
"g c #C0BEBF",
"h c #C0BFC0",
"j c #C3C3C3",
"k c #C8C6C6",
"l c #CCCBCB",
"z c #D0CDD0",
"x c #D3D3D3",
"c c #D7D7D8",
"v c #DBDBDC",
"b c #E0DFDF",
"n c #E0E8DF",
"m c #E5E4E4",
"M c #E8E5E6",
"N c #EBE5E8",
"B c #ECECEC",
"V c #F0EEEF",
"C c #F1EFF0",
"Z c #F4F4F4",
"A c #F7F7F8",
"S c #F9F7F8",
"D c #FFFEFF",
"F c None",
/* pixels */
"FFFFFFFFFFFFFFFFFFFFFFFFFFFFFFFFFFFFFFFFFFFFFFFFFFFFFFFFFFFFFFFF",
"FFFFFFFFFFFFFFFFFFFFFFFFFFFFFFFFFFFFFFFFFFFFFFFFFFFFFFFFFFFFFFFF",
"FFFFFFFFFFFFFFFFFFFFFFFFFFFFFFFFFFFFFFFFFFFFFFFFFFFFFFFFFFFFFFFF",
"FFFFFFFFFFFFFFFFFFFFFFFFFFFFFFFFFFFFFFFFFFFFFFFFFFFFFFFFFFFFFFFF",
"FFFFFFFFFFFFFFFFFFFFFFFFFFFFFFFFFFFFFFFFFFFFFFFFFFFFFFFFFFFFFFFF",
"FFFFFFFFFFFFFFFFFFFFFFFFFFFFFFFFFFFFFFFFFFFFFFFFFFFFFFFFFFFFFFFF",
"FFFFFFFFFFFFFFFFFFFFFFFFFFFF>>wjccjqFFFFFFFFFFFFFFFFFFFFFFFFFFFF",
"FFFFFFFFFFFFFFFFFFFFFFFFFFFF7mDDDDDDAFFFFFFFFFFFFFFFFFFFFFFFFFFF",
"FFFFFFFFFFFFFFFFFFFFFFFFFF=CNBDDDDDDDDFFFFFFFFFFFFFFFFFFFFFFFFFF",
"FFFFFFFFFFFFFFFFFFFFFFFFFFNuDDDDDDDDDDDFFFFFFFFFFFFFFFFFFFFFFFFF",
"FFFFFFFFFFFFFFFFFFFFFFFFFN1yDDDDDDDDDDDxFFFFFFFFFFFFFFFFFFFFFFFF",
"FFFFFFFFFFFFFFFFFFFFFFFFlr8DDDDDDDDDDDDDFFFFFFFFFFFFFFFFFFFFFFFF",
"FFFFFFFFFFFFFFFFFFFFFFF8x1DDDDDDDDDDDDDDdFFFFFFFFFFFFFFFFFFFFFFF",
"FFFFFFFFFFFFFFFFFFFFFFFjwgDDDDDDDDDDDDDZNFFFFFFFFFFFFFFFFFFFFFFF",
"FFFFFFFFFFFFFFFFFFFFFFFl3DDDDDDDDDDDDDDSD7FFFFFFFFFFFFFFFFFFFFFF",
"FFFFFFFFFFFFFFFFFFFFFFFVzDDDDDDDDDDDDDDSDeFFFFFFFFFFFFFFFFFFFFFF",
"FFFFFFFFFFFFFFFFFFFFFFjflDDDDDDDDDDDDDDDZjFFFFFFFFFFFFFFFFFFFFFF",
"FFFFFFFFFFFFFFFFFFFFFFxqlDDDjmDDDDZ,dDDDBmFFFFFFFFFFFFFFFFFFFFFF",
"FFFFFFFFFFFFFFFFFFFFFFmCDDDf.&ADDDw @BDDBS6FFFFFFFFFFFFFFFFFFFFF",
"FFFFFFFFFFFFFFFFFFFFFFAADDD2oogDDD>+oaDDZD0FFFFFFSDaFFFFFFFFFFFF",
"FFFFFFFFFFFFFFFFFFFFF8ZBDDD>+OyDDD=@owDDAZdFFFFFDDDDFFFFFFFFFFFF",
"FFFFFFFFFFFFFFFFFFFFF0CCDDD1OOfDDD*#ouDDSMZFFFFBDDDDvFFFFFFFFFFF",
"FFFFFFFFFFFFFFdmjFFFF8CDDDDf #BDDD< +mDDDMD07FFDDSDDDFFFFFFFFFFF",
"FFFFFFFFFFFFFDDDDfFFFyMDDDDDrjDDDDv=dDDDDAZaq>3DDAlSD8FFFFFFFFFF",
"FFFFFFFFFFFFDDDZSD;>q0MDDDDDDDDDDDDDDDDDDDBZ2ztDDD<jDlFFFFFFFFFF",
"FFFFFFFFFFFfDDDt7DmfxzDDDDDDDDDDDDDDDDDDDDDBvaDSDD7jDDFFFFFFFFFF",
"FFFFFFFFFFFBDNmvdDDDDDDDDDDDDDDDDDDDDDDDDDDSBxBDDDhxDBvFFFFFFFFF",
"FFFFFFFFFFFDDj6DavDDDDDDDDDDDDDD8jDDDDDDDDDDDmNDDx6yDvDFFFFFFFFF",
"FFFFFFFFFF9DDl5D5wDDDDDDDDDDDDDD=yDDDDDDDDDDDDDDD86qDmmDFFFFFFFF",
"FFFFFFFFFFyDDv6Df6DDDDDDDDDDDDDDDDDDDDDDDDDDDfjDmqy7DDDyFFFFFFFF",
"FFFFFFFFFFvDNB5mN6ADfbDDDDDDDDDDDDDDDDDDDDDDD8tDl0jqStFFFFFFFFFF",
"FFFFFFFFFFDDBA5fD7lD;aDDDDDDDDDDDDDDDDDDDDDDDASDy0v:*FFFFFFFFFFF",
"FFFFFFFFFFtyZDwqD8ySlmDDDDDDDDDDDDDDDDDDDDDDDalD9tc$:FFFFFFFFFFF",
"FFFFFFFFFF<$$w76De8DwvDDDDDDDDDDDDDDDDDDDDDDD2yD5dSyFFFFFFFFFFFF",
"FFFFFFFFFFFFFFFqDv5D>kDDDDDDDDDDDDDDDDDDDDDVD8uS8zzFFFFFFFFFFFFF",
"FFFFFFFFFFFFFFFFFe8M5lDDDDDSDDDDDDDClSDDDDDda8fN=FFFFFFFFFFFFFFF",
"FFFFFFFFFFFFFFFF&;&x8lDDDDtjDDDDDDDn,CDDDDDy0wljFFFFFFFFFFFFFFFF",
"FFFFFFFFFFFFFFFFFn*a0kDDDD2aDDDDDDDB4NDDDDDd0wvaFFFFFFFFFFFFFFFF",
"FFFFFFFFFFFFFFFFF81m7lDDDD8fDDDDDDDZ3bDDDDDf80xDFFFFFFFFFFFFFFFF",
"FFFFFFFFFFFFFFFF%;mA3lDDDD7hDDDDDDDD2xDDDDDf8txFFFFFFFFFFFFFFFFF",
"FFFFFFFFFFFFFFFF-SDb3lDDDD7jDDDDxCDD2lDDDDDf00*FFFFFFFFFFFFFFFFF",
"FFFFFFFFFFFFFFFFFlDb3lDDDD6jDDDD;zDD3hDDDDDj2=FFFFFFFFFFFFFFFFFF",
"FFFFFFFFFFFFFFFFF*lD7lDDDD5lDDDSumDD5aDDDDDj<FFFFFFFFFFFFFFFFFFF",
"FFFFFFFFFFFFFFFFFF&66xDDDD6lDDDDDZDD6yDDDDDf6FFFFFFFFFFFFFFFFFFF",
"FFFFFFFFFFFFFFFFFFFX;vSDDD6zDmDmyADD7wDDDDDuqFFFFFFFFFFFFFFFFFFF",
"FFFFFFFFFFFFFFFFFFFF4xZDDS6xS6Sx>DDD8wSZDDDtyFFFFFFFFFFFFFFFFFFF",
"FFFFFFFFFFFFFFFFFFFF>mmADA7vA8Sx6DDD8qDmNBAa<FFFFFFFFFFFFFFFFFFF",
"FFFFFFFFFFFFFFFFFFFF<DmmSZ7vBxDj6DDDq0DmmmAhFFFFFFFFFFFFFFFFFFFF",
"FFFFFFFFFFFFFFFFFFFFfDmmBv6mv7Dj7DDDq9DMmmStFFFFFFFFFFFFFFFFFFFF",
"FFFFFFFFFFFFFFFFFFFFFvDDDm7Mv2Dj7DDDw8DmmmDwFFFFFFFFFFFFFFFFFFFF",
"FFFFFFFFFFFFFFFFFFFFFFF9946Zx6Dh6DDDe6DmMmDFFFFFFFFFFFFFFFFFFFFF",
"FFFFFFFFFFFFFFFFFFFFFFF&p-;Dx6Df7DDDy5SmZDyFFFFFFFFFFFFFFFFFFFFF",
"FFFFFFFFFFFFFFFFFFFFFFFFs;dSz6Df7DDSmbSDkFFFFFFFFFFFFFFFFFFFFFFF",
"FFFFFFFFFFFFFFFFFFFFFFFF$fDCl6Ds8DDDhxkFFFFFFFFFFFFFFFFFFFFFFFFF",
"FFFFFFFFFFFFFFFFFFFFFFFFtDmBl6Da8SDDyFFFFFFFFFFFFFFFFFFFFFFFFFFF",
"FFFFFFFFFFFFFFFFFFFFFFFFFlCDv7Sa8ABDuFFFFFFFFFFFFFFFFFFFFFFFFFFF",
"FFFFFFFFFFFFFFFFFFFFFFFFFFFqq0Dd8AmD0FFFFFFFFFFFFFFFFFFFFFFFFFFF",
"FFFFFFFFFFFFFFFFFFFFFFFFFFFF=1Df7ZMAuFFFFFFFFFFFFFFFFFFFFFFFFFFF",
"FFFFFFFFFFFFFFFFFFFFFFFFFFFFFFAf6CMDtFFFFFFFFFFFFFFFFFFFFFFFFFFF",
"FFFFFFFFFFFFFFFFFFFFFFFFFFFFFFZj2SDy*FFFFFFFFFFFFFFFFFFFFFFFFFFF",
"FFFFFFFFFFFFFFFFFFFFFFFFFFFFFFiZ9NFFFFFFFFFFFFFFFFFFFFFFFFFFFFFF",
"FFFFFFFFFFFFFFFFFFFFFFFFFFFFFFFt8*FFFFFFFFFFFFFFFFFFFFFFFFFFFFFF",
"FFFFFFFFFFFFFFFFFFFFFFFFFFFFFFFFFFFFFFFFFFFFFFFFFFFFFFFFFFFFFFFF",
"FFFFFFFFFFFFFFFFFFFFFFFFFFFFFFFFFFFFFFFFFFFFFFFFFFFFFFFFFFFFFFFF"
};
