/* XPM */
static char *result[] = {
/* columns rows colors chars-per-pixel */
"64 64 64 1 ",
"  c #010101",
". c #090909",
"X c gray11",
"o c #252525",
"O c #282728",
"+ c #2C2C2C",
"@ c #343434",
"# c #393838",
"$ c #454544",
"% c #4F4D4D",
"& c #545454",
"* c #575956",
"= c #5C5C5C",
"- c #5B635B",
"; c #646464",
": c #666B64",
"> c #6D6D6D",
", c #706F6F",
"< c #737373",
"1 c #777877",
"2 c #777878",
"3 c #7C7C7C",
"4 c #7F807F",
"5 c #80827F",
"6 c #848484",
"7 c #878888",
"8 c #8C8C8C",
"9 c #908F8F",
"0 c #939393",
"q c #989797",
"w c #9C9C9C",
"e c #A09F9F",
"r c #A09FA0",
"t c #A4A4A4",
"y c #A8A7A7",
"u c #ABABAB",
"i c #B0AFAF",
"p c #A9B3A9",
"a c #B4B3B4",
"s c #B4BCB5",
"d c #B7B7B8",
"f c #BCBBBB",
"g c #C0BEBF",
"h c #C0BFC0",
"j c #C3C3C3",
"k c #C8C6C6",
"l c #CBCBCB",
"z c #D0CDD0",
"x c #D3D3D3",
"c c #D7D7D8",
"v c #DBDBDC",
"b c #E0DFDF",
"n c #E0E8DF",
"m c #E5E4E5",
"M c #E8E5E6",
"N c #EBE5E8",
"B c #ECECEC",
"V c #F0EEEF",
"C c #F1EFF0",
"Z c #F4F4F4",
"A c #F7F7F8",
"S c #F9F7F8",
"D c #FFFEFF",
"F c None",
/* pixels */
"FFFFFFFFFFFFFFFFFFFFFFFFFFFFFFFFFFFFFFFFFFFFFFFFFFFFFFFFFFFFFFFF",
"FFFFFFFFFFFFFFFFFFFFFFFFFFFFFFFFFFFFFFFFFFFFFFFFFFFFFFFFFFFFFFFF",
"FFFFFFFFFFFFFFFFFFFFFFFFFFFFFFFFFFFFFFFFFFFFFFFFFFFFFFFFFFFFFFFF",
"FFFFFFFFFFFFFFFFFFFFFFFFFFFFFFFFFFFFFFFFFFFFFFFFFFFFFFFFFFFFFFFF",
"FFFFFFFFFFFFFFFFFFFFFFFFFFFFFFFFFFFFFFFFFFFFFFFFFFFFFFFFFFFFFFFF",
"FFFFFFFFFFFFFFFFFFFFFFFFFFFFFFFFFFFFFFFFFFFFFFFFFFFFFFFFFFFFFFFF",
"FFFFFFFFFFFFFFFFFFFFFFFFFFFF>,ejxckwFFFFFFFFFFFFFFFFFFFFFFFFFFFF",
"FFFFFFFFFFFFFFFFFFFFFFFFFFFF6MDDDDDDAFFFFFFFFFFFFFFFFFFFFFFFFFFF",
"FFFFFFFFFFFFFFFFFFFFFFFFFF=VNBDDDDDDDDFFFFFFFFFFFFFFFFFFFFFFFFFF",
"FFFFFFFFFFFFFFFFFFFFFFFFFFNiDDDDDDDDDDDFFFFFFFFFFFFFFFFFFFFFFFFF",
"FFFFFFFFFFFFFFFFFFFFFFFFFN1yDDDDDDDDDDDxFFFFFFFFFFFFFFFFFFFFFFFF",
"FFFFFFFFFFFFFFFFFFFFFFFFlr8DDDDDDDDDDDDDFFFFFFFFFFFFFFFFFFFFFFFF",
"FFFFFFFFFFFFFFFFFFFFFFF8x1DDDDDDDDDDDDDDdFFFFFFFFFFFFFFFFFFFFFFF",
"FFFFFFFFFFFFFFFFFFFFFFFjwfDDDDDDDDDDDDDZBFFFFFFFFFFFFFFFFFFFFFFF",
"FFFFFFFFFFFFFFFFFFFFFFFl3DDDDDDDDDDDDDDSD6FFFFFFFFFFFFFFFFFFFFFF",
"FFFFFFFFFFFFFFFFFFFFFFFCzDDDDDDDDDDDDDDSStFFFFFFFFFFFFFFFFFFFFFF",
"FFFFFFFFFFFFFFFFFFFFFFjdlDDDDDDDDDDDDDDDCkFFFFFFFFFFFFFFFFFFFFFF",
"FFFFFFFFFFFFFFFFFFFFFFxwlDDDjMDDDDZ,dDDDBMFFFFFFFFFFFFFFFFFFFFFF",
"FFFFFFFFFFFFFFFFFFFFFFmVDDDf.&ADDDw @BDDBA6FFFFFFFFFFFFFFFFFFFFF",
"FFFFFFFFFFFFFFFFFFFFFFAADDD2oofDDD>+oaDDCD0FFFFFSDaFFFFFFFFFFFFF",
"FFFFFFFFFFFFFFFFFFFFF8ZBDDD>+OuDDD=#owDDACsFFFFDDDDFFFFFFFFFFFFF",
"FFFFFFFFFFFFFFFFFFFFF0BZDDD1OOdDDD*#ouDDDmZFFFBDDDDvFFFFFFFFFFFF",
"FFFFFFFFFFFFFdmhFFFFF8BDDDDf.#BDDD, +mDDDMD06FDDSDDDFFFFFFFFFFFF",
"FFFFFFFFFFFFDDDDdFFFFtBDDDDDehDDDDv=dDDDDAZdw3DDAlSD8FFFFFFFFFFF",
"FFFFFFFFFFFDDDZDD;>>q0MDDDDDDDDDDDDDDDDDDDBZ2tDDD<jDlFFFFFFFFFFF",
"FFFFFFFFFFfDDDe6DMfdxzDDDDDDDDDDDDDDDDDDDDDBvDSDD7jDDFFFFFFFFFFF",
"FFFFFFFFFFBDBmvdDDDdDDDDDDDDDDDDDDDDDDDDDDDSVBSDDhcDBvFFFFFFFFFF",
"FFFFFFFFFFDDk6DdvDDfDDDDDDDDDDDD8kDDDDDDDDDDDBDDx6tDvDFFFFFFFFFF",
"FFFFFFFFF9DDl6D3wDDDDDDDDDDDDDDD=yDDDDDDDDDDDDDD85wDmMDFFFFFFFFF",
"FFFFFFFFFyDSv6Dd6DDDDDDDDDDDDDDDDDDDDDDDDDDDDxDMqu6DDDyFFFFFFFFF",
"FFFFFFFFFvDBB6nN6SDDdvDDDDDDDDDDDDDDDDDDDDDDDxDl0fqStFFFFFFFFFFF",
"FFFFFFFFFDDBS6dD6lDD;dDDDDDDDDDDDDDDDDDDDDDDDSDu0b:&FFFFFFFFFFFF",
"FFFFFFFFFttCDwqD8yDDlmDDDDDDDDDDDDDDDDDDDDDDDlD9tv$:FFFFFFFFFFFF",
"FFFFFFFFF<$$e66De7DDwvDDDDDDDDDDDDDDDDDDDDDDDtD4dSyFFFFFFFFFFFFF",
"FFFFFFFFFFFFFFwDc6DS>lDDDDDDDDDDDDDDDDDDDDDVDiS8lzFFFFFFFFFFFFFF",
"FFFFFFFFFFFFFFFFe8MD3lDDDDDDDDDDDDDClSDDDDDdadB=FFFFFFFFFFFFFFFF",
"FFFFFFFFFFFFFFF&;&xD7lDDDDtjDDDDDDDn,ZDDDDDu0ljFFFFFFFFFFFFFFFFF",
"FFFFFFFFFFFFFFFFn*uD0lDDDD3iDDDDDDDB4NDDDDDd0vaFFFFFFFFFFFFFFFFF",
"FFFFFFFFFFFFFFFF82mD6lDDDD7fDDDDDDDZ3bDDDDDd7xDFFFFFFFFFFFFFFFFF",
"FFFFFFFFFFFFFFF%:mZD3lDDDD7jDDDDDDDD2xDDDDDf8xFFFFFFFFFFFFFFFFFF",
"FFFFFFFFFFFFFFF=ADAD3lDDDD6jDDDDxCDD2lDDDDDf0=FFFFFFFFFFFFFFFFFF",
"FFFFFFFFFFFFFFFFlDDD3lDDDD6kDDDD;zDD3hDDDDDj2FFFFFFFFFFFFFFFFFFF",
"FFFFFFFFFFFFFFFF&lDS6lDDDD4lDDDSuMDD5aDDDDDj<FFFFFFFFFFFFFFFFFFF",
"FFFFFFFFFFFFFFFFF&6l6zDDDD6lDDDDDZDD6yDDDDDd6FFFFFFFFFFFFFFFFFFF",
"FFFFFFFFFFFFFFFFFFX&:bSDDD6zDMDmtSDD6tDDDDDuqFFFFFFFFFFFFFFFFFFF",
"FFFFFFFFFFFFFFFFFFFF5xZDDA6xS6Sz>DDD7wAZDDDttFFFFFFFFFFFFFFFFFFF",
"FFFFFFFFFFFFFFFFFFFF>bMZDZ6vA8Sx6DDD8wSmBMAa<FFFFFFFFFFFFFFFFFFF",
"FFFFFFFFFFFFFFFFFFFF<DmmDZ7vCzDk6DDDqqDmmmDfFFFFFFFFFFFFFFFFFFFF",
"FFFFFFFFFFFFFFFFFFFFdDMmBc7mv6Dk6DDDq9DmmmDtFFFFFFFFFFFFFFFFFFFF",
"FFFFFFFFFFFFFFFFFFFFFvDDDm7Mv2Dj7DDDw7DmmmDwFFFFFFFFFFFFFFFFFFFF",
"FFFFFFFFFFFFFFFFFFFFFFF8946Zx6Dh6DDDe6DmmmDFFFFFFFFFFFFFFFFFFFFF",
"FFFFFFFFFFFFFFFFFFFFFFF*p-;Dx6Dh7DDDt6DmCDyFFFFFFFFFFFFFFFFFFFFF",
"FFFFFFFFFFFFFFFFFFFFFFFFs;dDl6Dd7DDDMbDDlFFFFFFFFFFFFFFFFFFFFFFF",
"FFFFFFFFFFFFFFFFFFFFFFFF$fDCl6Dd7DDDfxjFFFFFFFFFFFFFFFFFFFFFFFFF",
"FFFFFFFFFFFFFFFFFFFFFFFFtDmBl7Da7ADDyFFFFFFFFFFFFFFFFFFFFFFFFFFF",
"FFFFFFFFFFFFFFFFFFFFFFFFFlCDc7Du8ABDuFFFFFFFFFFFFFFFFFFFFFFFFFFF",
"FFFFFFFFFFFFFFFFFFFFFFFFFFFqq0Dd7SmDqFFFFFFFFFFFFFFFFFFFFFFFFFFF",
"FFFFFFFFFFFFFFFFFFFFFFFFFFFF=1Dd7ZMSuFFFFFFFFFFFFFFFFFFFFFFFFFFF",
"FFFFFFFFFFFFFFFFFFFFFFFFFFFFFFAf6BMDtFFFFFFFFFFFFFFFFFFFFFFFFFFF",
"FFFFFFFFFFFFFFFFFFFFFFFFFFFFFFZk3DDt*FFFFFFFFFFFFFFFFFFFFFFFFFFF",
"FFFFFFFFFFFFFFFFFFFFFFFFFFFFFFiZ9MFFFFFFFFFFFFFFFFFFFFFFFFFFFFFF",
"FFFFFFFFFFFFFFFFFFFFFFFFFFFFFFFt7=FFFFFFFFFFFFFFFFFFFFFFFFFFFFFF",
"FFFFFFFFFFFFFFFFFFFFFFFFFFFFFFFFFFFFFFFFFFFFFFFFFFFFFFFFFFFFFFFF",
"FFFFFFFFFFFFFFFFFFFFFFFFFFFFFFFFFFFFFFFFFFFFFFFFFFFFFFFFFFFFFFFF"
};
